<?xml version="1.0" encoding="UTF-8" standalone="no"?>
<!-- Created with Inkscape (http://www.inkscape.org/) -->

<svg
   xmlns:dc="http://purl.org/dc/elements/1.1/"
   xmlns:cc="http://creativecommons.org/ns#"
   xmlns:rdf="http://www.w3.org/1999/02/22-rdf-syntax-ns#"
   xmlns:svg="http://www.w3.org/2000/svg"
   xmlns="http://www.w3.org/2000/svg"
   xmlns:sodipodi="http://sodipodi.sourceforge.net/DTD/sodipodi-0.dtd"
   xmlns:inkscape="http://www.inkscape.org/namespaces/inkscape"
   width="239.65625"
   height="59.685131"
   id="svg3377"
   version="1.1"
   inkscape:version="0.48.3.1 r9886"
   sodipodi:docname="Documento nuevo 3">
  <defs
     id="defs3379" />
  <sodipodi:namedview
     id="base"
     pagecolor="#ffffff"
     bordercolor="#666666"
     borderopacity="1.0"
     inkscape:pageopacity="0.0"
     inkscape:pageshadow="2"
     inkscape:zoom="0.78865333"
     inkscape:cx="197.86743"
     inkscape:cy="21.565566"
     inkscape:document-units="px"
     inkscape:current-layer="layer1"
     showgrid="false"
     fit-margin-top="0"
     fit-margin-left="0"
     fit-margin-right="0"
     fit-margin-bottom="0"
     inkscape:window-width="563"
     inkscape:window-height="445"
     inkscape:window-x="456"
     inkscape:window-y="0"
     inkscape:window-maximized="0" />
  <metadata
     id="metadata3382">
    <rdf:RDF>
      <cc:Work
         rdf:about="">
        <dc:format>image/svg+xml</dc:format>
        <dc:type
           rdf:resource="http://purl.org/dc/dcmitype/StillImage" />
        <dc:title></dc:title>
      </cc:Work>
    </rdf:RDF>
  </metadata>
  <g
     inkscape:label="Capa 1"
     inkscape:groupmode="layer"
     id="layer1"
     transform="translate(-230.25,-500.5017)">
    <path
       inkscape:connector-curvature="0"
       d="m 336.125,536.03718 10.2,0 m -60.375,0 9.975,0 m 0,0 0.525,-1.875 1.05,-1.575 1.575,-1.05 1.875,-0.6 1.95,0.6 1.575,1.05 1.35,1.575 0.225,1.875 0.3,-1.875 1.05,-1.575 1.875,-1.05 1.875,-0.6 1.875,0.6 1.65,1.05 1.05,1.575 0.3,1.875 0.525,-1.875 1.05,-1.575 1.65,-1.05 1.875,-0.6 1.875,0.6 1.575,1.05 1.125,1.575 0.525,1.875 0.225,-1.875 1.125,-1.575 1.575,-1.05 2.175,-0.6 1.875,0.6 1.575,1.05 1.05,1.575 0.3,1.875 m 60.375,0 10.2,0 m -60.375,0 9.9,0 m 0,0 0.525,-1.875 1.125,-1.575 1.575,-1.05 1.875,-0.6 1.875,0.6 1.65,1.05 1.35,1.575 0.225,1.875 0.3,-1.875 1.05,-1.575 1.875,-1.05 1.875,-0.6 1.875,0.6 1.65,1.05 1.05,1.575 0.3,1.875 0.525,-1.875 1.05,-1.575 1.575,-1.05 1.95,-0.6 1.875,0.6 1.575,1.05 1.05,1.575 0.525,1.875 0.3,-1.875 1.05,-1.575 1.65,-1.05 2.1,-0.6 1.875,0.6 1.65,1.05 1.05,1.575 0.3,1.875"
       style="fill:none;stroke:#000000;stroke-width:0.80375004;stroke-linecap:square;stroke-linejoin:miter;stroke-miterlimit:10;stroke-opacity:1;stroke-dasharray:none"
       id="path322" />
    <path
       inkscape:connector-curvature="0"
       d="m 351.425,536.03718 -0.525,2.175 -1.35,1.875 -2.175,0.825 -2.1,0 -2.175,-0.825 -1.35,-1.875 -0.525,-2.175 0.525,-2.1 1.35,-1.875 2.175,-0.825 2.1,0 2.175,0.825 1.35,1.875 0.525,2.1 z"
       style="fill:#cdcdcd;fill-opacity:1;fill-rule:evenodd;stroke:#000000;stroke-width:0.26750001;stroke-linecap:square;stroke-linejoin:miter;stroke-miterlimit:10;stroke-opacity:1;stroke-dasharray:none"
       id="path324" />
    <path
       inkscape:connector-curvature="0"
       d="m 295.925,518.41218 40.5,0"
       style="fill:none;stroke:#000000;stroke-width:0.80375004;stroke-linecap:square;stroke-linejoin:miter;stroke-miterlimit:10;stroke-opacity:1;stroke-dasharray:none"
       id="path326" />
    <path
       inkscape:connector-curvature="0"
       d="m 296.675,522.16218 -10.725,-3.75 10.725,-3.525 0,7.275"
       style="fill:#000000;fill-opacity:1;fill-rule:evenodd;stroke:none"
       id="path328" />
    <path
       inkscape:connector-curvature="0"
       d="m 335.3,514.88718 11.025,3.525 -11.025,3.75 0,-7.275"
       style="fill:#000000;fill-opacity:1;fill-rule:evenodd;stroke:none"
       id="path330" />
    <path
       inkscape:connector-curvature="0"
       d="m 356.225,518.41218 40.5,0"
       style="fill:none;stroke:#000000;stroke-width:0.80375004;stroke-linecap:square;stroke-linejoin:miter;stroke-miterlimit:10;stroke-opacity:1;stroke-dasharray:none"
       id="path332" />
    <path
       inkscape:connector-curvature="0"
       d="m 357.05,522.16218 -10.725,-3.75 10.725,-3.525 0,7.275"
       style="fill:#000000;fill-opacity:1;fill-rule:evenodd;stroke:none"
       id="path334" />
    <path
       inkscape:connector-curvature="0"
       d="m 395.675,514.88718 11.025,3.525 -11.025,3.75 0,-7.275"
       style="fill:#000000;fill-opacity:1;fill-rule:evenodd;stroke:none"
       id="path336" />
    <text
       style="font-size:15px"
       y="512.48669"
       x="310.92499"
       id="text338">
      <tspan
         style="font-size:13.39074993px;font-variant:normal;font-weight:normal;writing-mode:lr-tb;fill:#000000;fill-opacity:1;fill-rule:nonzero;stroke:none;font-family:Arial Black;-inkscape-font-specification:Arial"
         x="310.92499"
         y="512.48669"
         id="tspan340">l</tspan>
      <tspan
         style="font-size:13.39074993px;font-variant:normal;font-weight:normal;writing-mode:lr-tb;fill:#000000;fill-opacity:1;fill-rule:nonzero;stroke:none;font-family:Arial Black;-inkscape-font-specification:Arial"
         x="373.69949"
         y="510.08707"
         id="tspan342">l</tspan>
      <tspan
         style="font-size:13.39074993px;font-variant:normal;font-weight:normal;writing-mode:lr-tb;fill:#000000;fill-opacity:1;fill-rule:nonzero;stroke:none;font-family:Arial Black;-inkscape-font-specification:Arial"
         x="311.44992 374.52438 343.40024"
         y="557.71259"
         sodipodi:role="line"
         id="tspan344">kkM</tspan>
    </text>
    <path
       inkscape:connector-curvature="0"
       d="m 291.05,536.03718 -0.525,2.175 -1.35,1.875 -2.175,0.825 -2.1,0 -2.175,-0.825 -1.35,-1.875 -0.525,-2.175 0.525,-2.1 1.35,-1.875 2.175,-0.825 2.1,0 2.175,0.825 1.35,1.875 0.525,2.1 z"
       style="fill:#1a1a1a;fill-opacity:1;fill-rule:evenodd;stroke:#000000;stroke-width:0.26750001;stroke-linecap:square;stroke-linejoin:miter;stroke-miterlimit:10;stroke-opacity:1;stroke-dasharray:none"
       id="path346" />
    <path
       inkscape:connector-curvature="0"
       d="m 416.6,536.03718 -0.3,2.175 -1.575,1.875 -1.875,0.825 -2.175,0 -2.1,-0.825 -1.35,-1.875 -0.525,-2.175 0.525,-2.1 1.35,-1.875 2.1,-0.825 2.175,0 1.875,0.825 1.575,1.875 0.3,2.1 z"
       style="fill:#1a1a1a;fill-opacity:1;fill-rule:evenodd;stroke:#000000;stroke-width:0.26750001;stroke-linecap:square;stroke-linejoin:miter;stroke-miterlimit:10;stroke-opacity:1;stroke-dasharray:none"
       id="path348" />
    <text
       style="font-size:15px"
       y="560.18683"
       x="278.14999"
       id="text350">
      <tspan
         style="font-size:13.39074993px;font-variant:normal;font-weight:normal;writing-mode:lr-tb;fill:#000000;fill-opacity:1;fill-rule:nonzero;stroke:none;font-family:Arial Black;-inkscape-font-specification:Arial"
         x="278.14999"
         y="560.18683"
         id="tspan352">m</tspan>
      <tspan
         style="font-size:13.39074993px;font-variant:normal;font-weight:normal;writing-mode:lr-tb;fill:#000000;fill-opacity:1;fill-rule:nonzero;stroke:none;font-family:Arial Black;-inkscape-font-specification:Arial"
         x="406.3999"
         y="557.71222"
         id="tspan354">m</tspan>
    </text>
    <path
       inkscape:connector-curvature="0"
       d="m 285.95,536.03718 -47.7,0"
       style="fill:none;stroke:#000000;stroke-width:0.80375004;stroke-linecap:square;stroke-linejoin:miter;stroke-miterlimit:10;stroke-opacity:1;stroke-dasharray:none"
       id="path356" />
    <path
       inkscape:connector-curvature="0"
       d="m 230.675,536.03718 0.6,-1.35 1.275,-0.75 1.875,-0.3 1.875,0.3 1.35,0.75 0.6,1.35 -0.6,1.35 -1.35,0.825 -1.875,0.225 -1.875,-0.225 -1.275,-0.825 -0.6,-1.35 z"
       style="fill:#ffffff;fill-opacity:1;fill-rule:evenodd;stroke:#000000;stroke-width:0.80375004;stroke-linecap:square;stroke-linejoin:miter;stroke-miterlimit:10;stroke-opacity:1;stroke-dasharray:none"
       id="path358" />
    <path
       inkscape:connector-curvature="0"
       d="m 233.15,553.73718 2.4,0 0,-45.3 -2.4,0 0,45.3 z"
       style="fill:#4d4d4d;fill-opacity:1;fill-rule:evenodd;stroke:#000000;stroke-width:0.26750001;stroke-linecap:square;stroke-linejoin:miter;stroke-miterlimit:10;stroke-opacity:1;stroke-dasharray:none"
       id="path360" />
    <path
       inkscape:connector-curvature="0"
       d="m 414.2,536.03718 47.775,0"
       style="fill:none;stroke:#000000;stroke-width:0.80375004;stroke-linecap:square;stroke-linejoin:miter;stroke-miterlimit:10;stroke-opacity:1;stroke-dasharray:none"
       id="path362" />
    <path
       inkscape:connector-curvature="0"
       d="m 469.475,536.03718 -0.525,-1.35 -1.35,-0.75 -1.875,-0.3 -1.875,0.3 -1.35,0.75 -0.525,1.35 0.525,1.35 1.35,0.825 1.875,0.225 1.875,-0.225 1.35,-0.825 0.525,-1.35 z"
       style="fill:#ffffff;fill-opacity:1;fill-rule:evenodd;stroke:#000000;stroke-width:0.80375004;stroke-linecap:square;stroke-linejoin:miter;stroke-miterlimit:10;stroke-opacity:1;stroke-dasharray:none"
       id="path364" />
    <path
       inkscape:connector-curvature="0"
       d="m 464.6,508.43718 2.4,0 0,45.3 -2.4,0 0,-45.3 z"
       style="fill:#4d4d4d;fill-opacity:1;fill-rule:evenodd;stroke:#000000;stroke-width:0.26750001;stroke-linecap:square;stroke-linejoin:miter;stroke-miterlimit:10;stroke-opacity:1;stroke-dasharray:none"
       id="path366" />
  </g>
</svg>
