<?xml version="1.0" encoding="UTF-8" standalone="no"?>
<!-- Created with Inkscape (http://www.inkscape.org/) -->

<svg
   xmlns:dc="http://purl.org/dc/elements/1.1/"
   xmlns:cc="http://creativecommons.org/ns#"
   xmlns:rdf="http://www.w3.org/1999/02/22-rdf-syntax-ns#"
   xmlns:svg="http://www.w3.org/2000/svg"
   xmlns="http://www.w3.org/2000/svg"
   xmlns:sodipodi="http://sodipodi.sourceforge.net/DTD/sodipodi-0.dtd"
   xmlns:inkscape="http://www.inkscape.org/namespaces/inkscape"
   width="428.89194"
   height="208.0369"
   id="svg5183"
   version="1.1"
   inkscape:version="0.48.3.1 r9886"
   sodipodi:docname="g02e06.pdf">
  <defs
     id="defs5185">
    <clipPath
       clipPathUnits="userSpaceOnUse"
       id="clipPath5131">
      <path
         inkscape:connector-curvature="0"
         d="m 438.66,188.72 6.6,0 0,14.4 -6.6,0 0,-14.4 z"
         id="path5133" />
    </clipPath>
  </defs>
  <sodipodi:namedview
     id="base"
     pagecolor="#ffffff"
     bordercolor="#666666"
     borderopacity="1.0"
     inkscape:pageopacity="0.0"
     inkscape:pageshadow="2"
     inkscape:zoom="0.35"
     inkscape:cx="214.4375"
     inkscape:cy="104.0221"
     inkscape:document-units="px"
     inkscape:current-layer="layer1"
     showgrid="false"
     fit-margin-top="0"
     fit-margin-left="0"
     fit-margin-right="0"
     fit-margin-bottom="0"
     inkscape:window-width="775"
     inkscape:window-height="445"
     inkscape:window-x="184"
     inkscape:window-y="65"
     inkscape:window-maximized="0" />
  <metadata
     id="metadata5188">
    <rdf:RDF>
      <cc:Work
         rdf:about="">
        <dc:format>image/svg+xml</dc:format>
        <dc:type
           rdf:resource="http://purl.org/dc/dcmitype/StillImage" />
        <dc:title></dc:title>
      </cc:Work>
    </rdf:RDF>
  </metadata>
  <g
     inkscape:label="Capa 1"
     inkscape:groupmode="layer"
     id="layer1"
     transform="translate(-135.5625,-428.34739)">
    <path
       inkscape:connector-curvature="0"
       d="m 136.025,468.20822 216,0 0,9 -216,0 0,-9 z"
       style="fill:#010101;fill-opacity:1;fill-rule:nonzero;stroke:none"
       id="path5071" />
    <path
       inkscape:connector-curvature="0"
       d="m 136.025,477.20822 216,0 0,-9 -216,0 0,9 z"
       style="fill:none;stroke:#010101;stroke-width:0.9375;stroke-linecap:round;stroke-linejoin:miter;stroke-miterlimit:8;stroke-opacity:1;stroke-dasharray:none"
       id="path5073" />
    <path
       inkscape:connector-curvature="0"
       d="m 190.025,468.20822 9,0 0,162.00001 -9,0 0,-162.00001 z"
       style="fill:#969696;fill-opacity:1;fill-rule:nonzero;stroke:none"
       id="path5075" />
    <path
       inkscape:connector-curvature="0"
       d="m 190.025,630.20823 9,0 0,-162.00001 -9,0 0,162.00001 z"
       style="fill:none;stroke:#010101;stroke-width:0.9375;stroke-linecap:round;stroke-linejoin:miter;stroke-miterlimit:8;stroke-opacity:1;stroke-dasharray:none"
       id="path5077" />
    <path
       inkscape:connector-curvature="0"
       d="m 280.025,468.20822 9,0 0,162.00001 -9,0 0,-162.00001 z"
       style="fill:#969696;fill-opacity:1;fill-rule:nonzero;stroke:none"
       id="path5079" />
    <path
       inkscape:connector-curvature="0"
       d="m 280.025,630.20823 9,0 0,-162.00001 -9,0 0,162.00001 z"
       style="fill:none;stroke:#010101;stroke-width:0.9375;stroke-linecap:round;stroke-linejoin:miter;stroke-miterlimit:8;stroke-opacity:1;stroke-dasharray:none"
       id="path5081" />
    <path
       inkscape:connector-curvature="0"
       d="m 208.025,459.20822 0,36 63,0 0,-36 -63,0 z"
       style="fill:none;stroke:#010101;stroke-width:2.8125;stroke-linecap:butt;stroke-linejoin:miter;stroke-miterlimit:8;stroke-opacity:1;stroke-dasharray:11.25, 8.4375;stroke-dashoffset:0"
       id="path5083" />
    <path
       inkscape:connector-curvature="0"
       d="m 205.25,440.30822 68.55,0 0,1.875 -68.55,0 0,-1.875 z m 1.275,4.65 -7.5,-3.75 7.5,-3.75 0,7.5 z m 66,-7.5 7.5,3.75 -7.5,3.75"
       style="fill:#010101;fill-opacity:1;fill-rule:nonzero;stroke:none"
       id="path5085" />
    <text
       style="font-size:15px"
       y="438.50784"
       x="228.5"
       id="text5087">
      <tspan
         style="font-size:15.03512478px;font-variant:normal;font-weight:normal;writing-mode:lr-tb;fill:#000000;fill-opacity:1;fill-rule:nonzero;stroke:none;font-family:Times New Roman;-inkscape-font-specification:TimesNewRoman"
         x="228.5 236.00554 243.51106 250.17464 261.72763"
         y="438.50784"
         sodipodi:role="line"
         id="tspan5089">20cm</tspan>
    </text>
    <path
       inkscape:connector-curvature="0"
       d="m 361.475,474.50822 0,149.47501 c 0,0.3 -0.225,0.45 -0.45,0.45 -0.225,0 -0.45,-0.15 -0.45,-0.45 l 0,-149.47501 c 0,-0.3 0.225,-0.45 0.45,-0.45 0.225,0 0.45,0.15 0.45,0.45 z m -4.2,1.2 3.75,-7.5 3.75,7.5 -7.5,0 z m 7.5,147.00001 -3.75,7.5 -3.75,-7.5"
       style="fill:#010101;fill-opacity:1;fill-rule:nonzero;stroke:none"
       id="path5091" />
    <text
       style="font-size:15px"
       y="549.58289"
       x="343.02499"
       id="text5093">
      <tspan
         style="font-size:15.03512478px;font-variant:normal;font-weight:normal;writing-mode:lr-tb;fill:#000000;fill-opacity:1;fill-rule:nonzero;stroke:none;font-family:Times New Roman;-inkscape-font-specification:TimesNewRoman"
         x="343.02499"
         y="549.58289"
         id="tspan5095">1</tspan>
    </text>
    <path
       inkscape:connector-curvature="0"
       d="m 519.125,448.63322 41.775,147.15001 -8.625,2.475 L 510.5,451.03322"
       style="fill:#969696;fill-opacity:1;fill-rule:evenodd;stroke:none"
       id="path5097" />
    <path
       inkscape:connector-curvature="0"
       d="m 519.125,448.63322 41.775,147.15001 -8.625,2.475 -41.775,-147.22501 8.625,-2.4 z"
       style="fill:none;stroke:#010101;stroke-width:0.9375;stroke-linecap:round;stroke-linejoin:miter;stroke-miterlimit:8;stroke-opacity:1;stroke-dasharray:none"
       id="path5099" />
    <path
       inkscape:connector-curvature="0"
       d="m 496.025,441.20822 0,18 18,0"
       style="fill:#ffffff;fill-opacity:1;fill-rule:evenodd;stroke:none"
       id="path5101" />
    <path
       inkscape:connector-curvature="0"
       d="m 496.025,441.20822 0,18 18,0 -18,-18 z"
       style="fill:none;stroke:#010101;stroke-width:1.875;stroke-linecap:butt;stroke-linejoin:miter;stroke-miterlimit:8;stroke-opacity:1;stroke-dasharray:7.5, 5.625;stroke-dashoffset:0"
       id="path5103" />
    <path
       inkscape:connector-curvature="0"
       d="m 532.025,441.20822 0,18 -18,0"
       style="fill:#ffffff;fill-opacity:1;fill-rule:evenodd;stroke:none"
       id="path5105" />
    <path
       inkscape:connector-curvature="0"
       d="m 532.025,441.20822 0,18 -18,0 18,-18 z"
       style="fill:none;stroke:#010101;stroke-width:1.875;stroke-linecap:butt;stroke-linejoin:miter;stroke-miterlimit:8;stroke-opacity:1;stroke-dasharray:7.5, 5.625;stroke-dashoffset:0"
       id="path5107" />
    <path
       inkscape:connector-curvature="0"
       d="m 496.025,459.20822 36,0 0,18 -36,0 0,-18 z"
       style="fill:#ffffff;fill-opacity:1;fill-rule:nonzero;stroke:none"
       id="path5109" />
    <path
       inkscape:connector-curvature="0"
       d="m 496.025,459.20822 0,18 36,0 0,-18 -36,0 z"
       style="fill:none;stroke:#010101;stroke-width:1.875;stroke-linecap:butt;stroke-linejoin:miter;stroke-miterlimit:8;stroke-opacity:1;stroke-dasharray:7.5, 5.625;stroke-dashoffset:0"
       id="path5111" />
    <path
       inkscape:connector-curvature="0"
       d="m 517.7,447.58322 30.225,149.92501 -8.85,1.8 -30.225,-150.00001"
       style="fill:#969696;fill-opacity:1;fill-rule:evenodd;stroke:none"
       id="path5113" />
    <path
       inkscape:connector-curvature="0"
       d="m 517.7,447.58322 30.225,149.92501 -8.85,1.8 -30.225,-150.00001 8.85,-1.725 z"
       style="fill:none;stroke:#010101;stroke-width:0.9375;stroke-linecap:round;stroke-linejoin:miter;stroke-miterlimit:8;stroke-opacity:1;stroke-dasharray:none"
       id="path5115" />
    <path
       inkscape:connector-curvature="0"
       d="m 514.475,446.90822 c -2.475,0 -4.5,2.025 -4.5,4.5 0,2.475 2.025,4.5 4.5,4.5 2.475,0 4.5,-2.025 4.5,-4.5 0,-2.475 -2.025,-4.5 -4.5,-4.5"
       style="fill:#010101;fill-opacity:1;fill-rule:evenodd;stroke:none"
       id="path5117" />
    <path
       inkscape:connector-curvature="0"
       d="m 514.475,446.90822 c -2.475,0 -4.5,2.025 -4.5,4.5 0,2.475 2.025,4.5 4.5,4.5 2.475,0 4.5,-2.025 4.5,-4.5 0,-2.475 -2.025,-4.5 -4.5,-4.5 z m -4.5,0 0,162.00001 m 0,-162.00001 36,189.00001 m -36,-189.00001 54,189.00001"
       style="fill:none;stroke:#010101;stroke-width:0.9375;stroke-linecap:round;stroke-linejoin:round;stroke-miterlimit:10;stroke-opacity:1;stroke-dasharray:none"
       id="path5119" />
    <path
       inkscape:connector-curvature="0"
       d="m 509.975,581.90823 c 6.75,4.5 13.5,9 18,9 4.5,0 6.75,-4.5 9,-9 m -27,18 c 11.25,4.5 22.5,9 30,9 7.5,0 11.25,-4.5 15,-9"
       style="fill:none;stroke:#010101;stroke-width:1.25;stroke-linecap:butt;stroke-linejoin:round;stroke-miterlimit:10;stroke-opacity:1;stroke-dasharray:none"
       id="path5121" />
    <text
       style="font-size:15px"
       y="583.48285"
       x="518.97504"
       id="text5123">
      <tspan
         style="font-size:15.01175022px;font-variant:normal;font-weight:normal;writing-mode:lr-tb;fill:#000000;fill-opacity:1;fill-rule:nonzero;stroke:none;font-family:SymbolMT;-inkscape-font-specification:SymbolMT"
         x="518.97504"
         y="583.48285"
         id="tspan5125">α</tspan>
    </text>
    <g
       transform="matrix(1.25,0,0,-1.25,-20.35,867.30823)"
       id="g5127">
      <g
         id="g5129"
         clip-path="url(#clipPath5131)">
        <text
           transform="matrix(1,0,0,-1,438.66,191.0603)"
           id="text5135">
          <tspan
             style="font-size:12.00940037px;font-variant:normal;font-weight:normal;writing-mode:lr-tb;fill:#000000;fill-opacity:1;fill-rule:nonzero;stroke:none;font-family:SymbolMT;-inkscape-font-specification:SymbolMT"
             x="0"
             y="0"
             id="tspan5137">β</tspan>
        </text>
      </g>
    </g>
  </g>
</svg>
