<?xml version="1.0" encoding="UTF-8" standalone="no"?>
<!-- Created with Inkscape (http://www.inkscape.org/) -->

<svg
   xmlns:dc="http://purl.org/dc/elements/1.1/"
   xmlns:cc="http://creativecommons.org/ns#"
   xmlns:rdf="http://www.w3.org/1999/02/22-rdf-syntax-ns#"
   xmlns:svg="http://www.w3.org/2000/svg"
   xmlns="http://www.w3.org/2000/svg"
   xmlns:sodipodi="http://sodipodi.sourceforge.net/DTD/sodipodi-0.dtd"
   xmlns:inkscape="http://www.inkscape.org/namespaces/inkscape"
   width="370.08026"
   height="316.47473"
   id="svg4809"
   version="1.1"
   inkscape:version="0.48.3.1 r9886"
   sodipodi:docname="g02e05.pdf">
  <defs
     id="defs4811" />
  <sodipodi:namedview
     id="base"
     pagecolor="#ffffff"
     bordercolor="#666666"
     borderopacity="1.0"
     inkscape:pageopacity="0.0"
     inkscape:pageshadow="2"
     inkscape:zoom="0.98994949"
     inkscape:cx="130.05565"
     inkscape:cy="179.03122"
     inkscape:document-units="px"
     inkscape:current-layer="layer1"
     showgrid="false"
     fit-margin-top="0"
     fit-margin-left="0"
     fit-margin-right="0"
     fit-margin-bottom="0"
     inkscape:window-width="1024"
     inkscape:window-height="746"
     inkscape:window-x="0"
     inkscape:window-y="0"
     inkscape:window-maximized="1" />
  <metadata
     id="metadata4814">
    <rdf:RDF>
      <cc:Work
         rdf:about="">
        <dc:format>image/svg+xml</dc:format>
        <dc:type
           rdf:resource="http://purl.org/dc/dcmitype/StillImage" />
        <dc:title></dc:title>
      </cc:Work>
    </rdf:RDF>
  </metadata>
  <g
     inkscape:label="Capa 1"
     inkscape:groupmode="layer"
     id="layer1"
     transform="translate(-161.05982,-369.5687)">
    <path
       inkscape:connector-curvature="0"
       d="m 450.93482,460.57466 9,0 0,225.00001 -9,0 0,-225.00001 z"
       style="fill:#ffffff;fill-opacity:1;fill-rule:nonzero;stroke:none"
       id="path4697" />
    <path
       inkscape:connector-curvature="0"
       d="m 450.93482,685.57467 9,0 0,-225.00001 -9,0 0,225.00001 z"
       style="fill:none;stroke:#010101;stroke-width:0.9375;stroke-linecap:round;stroke-linejoin:miter;stroke-miterlimit:8;stroke-opacity:1;stroke-dasharray:none"
       id="path4699" />
    <path
       inkscape:connector-curvature="0"
       d="m 198.93482,388.57466 9,0 0,225.00001 -9,0 0,-225.00001 z"
       style="fill:#ffffff;fill-opacity:1;fill-rule:nonzero;stroke:none"
       id="path4701" />
    <path
       inkscape:connector-curvature="0"
       d="m 198.93482,613.57467 9,0 0,-225.00001 -9,0 0,225.00001 z"
       style="fill:none;stroke:#010101;stroke-width:0.9375;stroke-linecap:round;stroke-linejoin:miter;stroke-miterlimit:8;stroke-opacity:1;stroke-dasharray:none"
       id="path4703" />
    <path
       inkscape:connector-curvature="0"
       d="m 324.93482,424.57466 9,0 0,225.00001 -9,0 0,-225.00001 z"
       style="fill:#ffffff;fill-opacity:1;fill-rule:nonzero;stroke:none"
       id="path4705" />
    <path
       inkscape:connector-curvature="0"
       d="m 324.93482,649.57467 9,0 0,-225.00001 -9,0 0,225.00001 z"
       style="fill:none;stroke:#010101;stroke-width:0.9375;stroke-linecap:round;stroke-linejoin:miter;stroke-miterlimit:8;stroke-opacity:1;stroke-dasharray:none"
       id="path4707" />
    <path
       inkscape:connector-curvature="0"
       d="m 162.93482,388.57466 306,81"
       style="fill:none;stroke:#010101;stroke-width:3.75;stroke-linecap:butt;stroke-linejoin:round;stroke-miterlimit:10;stroke-opacity:1;stroke-dasharray:none"
       id="path4709" />
    <path
       inkscape:connector-curvature="0"
       d="m 267.63482,392.77466 5.1,17.25 -17.25,5.1"
       style="fill:#ffffff;fill-opacity:1;fill-rule:evenodd;stroke:none"
       id="path4711" />
    <path
       inkscape:connector-curvature="0"
       d="m 267.63482,392.77466 5.1,17.25 -17.25,5.1 12.15,-22.35 z"
       style="fill:none;stroke:#010101;stroke-width:0.9375;stroke-linecap:round;stroke-linejoin:round;stroke-miterlimit:10;stroke-opacity:1;stroke-dasharray:none"
       id="path4713" />
    <path
       inkscape:connector-curvature="0"
       d="m 233.05982,403.04966 5.1,17.325 17.25,-5.175"
       style="fill:#ffffff;fill-opacity:1;fill-rule:evenodd;stroke:none"
       id="path4715" />
    <path
       inkscape:connector-curvature="0"
       d="m 233.05982,403.04966 5.1,17.325 17.25,-5.175 -22.35,-12.15 z"
       style="fill:none;stroke:#010101;stroke-width:0.9375;stroke-linecap:round;stroke-linejoin:round;stroke-miterlimit:10;stroke-opacity:1;stroke-dasharray:none"
       id="path4717" />
    <path
       inkscape:connector-curvature="0"
       d="m 286.75982,418.04966 5.1,17.325 17.25,-5.175"
       style="fill:#ffffff;fill-opacity:1;fill-rule:evenodd;stroke:none"
       id="path4719" />
    <path
       inkscape:connector-curvature="0"
       d="m 286.75982,418.04966 5.1,17.325 17.25,-5.175 -22.35,-12.15 z"
       style="fill:none;stroke:#010101;stroke-width:0.9375;stroke-linecap:round;stroke-linejoin:round;stroke-miterlimit:10;stroke-opacity:1;stroke-dasharray:none"
       id="path4721" />
    <path
       inkscape:connector-curvature="0"
       d="m 322.00982,404.39966 5.1,17.25 -17.25,5.1"
       style="fill:#ffffff;fill-opacity:1;fill-rule:evenodd;stroke:none"
       id="path4723" />
    <path
       inkscape:connector-curvature="0"
       d="m 322.00982,404.39966 5.1,17.25 -17.25,5.1 12.15,-22.35 z m -54.075,-12.6 54.75,13.275 m -86.25,15.6 54.75,13.275 m -57.975,-29.4 54.75,13.275 m -15.75,-8.625 54.75,13.35"
       style="fill:none;stroke:#010101;stroke-width:0.9375;stroke-linecap:round;stroke-linejoin:round;stroke-miterlimit:10;stroke-opacity:1;stroke-dasharray:none"
       id="path4725" />
    <path
       inkscape:connector-curvature="0"
       d="m 433.15982,389.02466 -93.375,42.375 c -0.225,0.15 -0.45,0 -0.6,-0.225 -0.075,-0.225 0,-0.525 0.225,-0.6 l 93.3,-42.45 c 0.3,-0.075 0.525,0 0.675,0.3 0.075,0.225 0,0.45 -0.225,0.6 z m -90.825,44.85 -8.4,-0.3 5.25,-6.525"
       style="fill:#010101;fill-opacity:1;fill-rule:nonzero;stroke:none"
       id="path4731" />
    <path
       inkscape:connector-curvature="0"
       d="m 433.37032,390.09157 -219.39343,-2.05236 c -0.2988,-0.0268 -0.50281,-0.27099 -0.48272,-0.49509 0.0201,-0.2241 0.1896,-0.4348 0.49509,-0.48271 l 219.38674,2.12706 c 0.2988,0.0268 0.50951,0.19628 0.48272,0.49509 -0.0201,0.2241 -0.18959,0.4348 -0.4884,0.40801 z m -218.18076,1.21902 -7.4875,-3.83404 7.55973,-3.68958"
       style="fill:#010101;fill-opacity:1;fill-rule:nonzero;stroke:none"
       id="path4733" />
    <path
       inkscape:connector-curvature="0"
       d="m 433.38482,388.42466 24.825,66.15 c 0.075,0.225 -0.075,0.525 -0.3,0.6 -0.225,0.075 -0.525,0 -0.6,-0.3 l -24.825,-66.15 c -0.075,-0.225 0.075,-0.525 0.3,-0.6 0.225,-0.075 0.525,0.075 0.6,0.3 z m 27.45,63.825 -0.9,8.325 -6.15,-5.7"
       style="fill:#010101;fill-opacity:1;fill-rule:nonzero;stroke:none"
       id="path4751" />
    <path
       inkscape:connector-curvature="0"
       d="m 382.53482,423.14966 5.175,17.25 -17.25,5.1"
       style="fill:#ffffff;fill-opacity:1;fill-rule:evenodd;stroke:none"
       id="path4753" />
    <path
       inkscape:connector-curvature="0"
       d="m 382.53482,423.14966 5.175,17.25 -17.25,5.1 12.075,-22.35 z"
       style="fill:none;stroke:#010101;stroke-width:0.9375;stroke-linecap:round;stroke-linejoin:round;stroke-miterlimit:10;stroke-opacity:1;stroke-dasharray:none"
       id="path4755" />
    <path
       inkscape:connector-curvature="0"
       d="m 347.95982,433.42466 5.175,17.325 17.25,-5.175"
       style="fill:#ffffff;fill-opacity:1;fill-rule:evenodd;stroke:none"
       id="path4757" />
    <path
       inkscape:connector-curvature="0"
       d="m 347.95982,433.42466 5.175,17.325 17.25,-5.175 -22.425,-12.15 z"
       style="fill:none;stroke:#010101;stroke-width:0.9375;stroke-linecap:round;stroke-linejoin:round;stroke-miterlimit:10;stroke-opacity:1;stroke-dasharray:none"
       id="path4759" />
    <path
       inkscape:connector-curvature="0"
       d="m 401.65982,448.42466 5.175,17.325 17.25,-5.175"
       style="fill:#ffffff;fill-opacity:1;fill-rule:evenodd;stroke:none"
       id="path4761" />
    <path
       inkscape:connector-curvature="0"
       d="m 401.65982,448.42466 5.175,17.325 17.25,-5.175 -22.425,-12.15 z"
       style="fill:none;stroke:#010101;stroke-width:0.9375;stroke-linecap:round;stroke-linejoin:round;stroke-miterlimit:10;stroke-opacity:1;stroke-dasharray:none"
       id="path4763" />
    <path
       inkscape:connector-curvature="0"
       d="m 436.90982,434.77466 5.175,17.25 -17.25,5.1"
       style="fill:#ffffff;fill-opacity:1;fill-rule:evenodd;stroke:none"
       id="path4765" />
    <path
       inkscape:connector-curvature="0"
       d="m 436.90982,434.77466 5.175,17.25 -17.25,5.1 12.075,-22.35 z m -54.075,-12.6 54.75,13.275 m -86.25,15.6 54.75,13.275 m -57.9,-29.4 54.75,13.275 m -15.75,-8.625 54.75,13.35"
       style="fill:none;stroke:#010101;stroke-width:0.9375;stroke-linecap:round;stroke-linejoin:round;stroke-miterlimit:10;stroke-opacity:1;stroke-dasharray:none"
       id="path4767" />
    <text
       xml:space="preserve"
       style="font-size:40px;font-style:normal;font-weight:normal;line-height:125%;letter-spacing:0px;word-spacing:0px;fill:#000000;fill-opacity:1;stroke:none;font-family:Sans"
       x="469.55511"
       y="468.84845"
       id="text4884"
       sodipodi:linespacing="125%"><tspan
         sodipodi:role="line"
         id="tspan4886"
         x="469.55511"
         y="468.84845"
         style="font-size:14px;font-style:normal;font-variant:normal;font-weight:normal;font-stretch:normal;font-family:Serif;-inkscape-font-specification:Serif">Alambre</tspan><tspan
         sodipodi:role="line"
         x="469.55511"
         y="486.34845"
         id="tspan4888"
         style="font-size:14px;font-style:normal;font-variant:normal;font-weight:normal;font-stretch:normal;font-family:Serif;-inkscape-font-specification:Serif">(flexible)</tspan></text>
    <text
       xml:space="preserve"
       style="font-size:40px;font-style:normal;font-weight:normal;line-height:125%;letter-spacing:0px;word-spacing:0px;fill:#000000;fill-opacity:1;stroke:none;font-family:Sans"
       x="439.25055"
       y="380.96518"
       id="text4894"
       sodipodi:linespacing="125%"><tspan
         sodipodi:role="line"
         id="tspan4896"
         x="439.25055"
         y="380.96518"
         style="font-size:15px;font-style:normal;font-variant:normal;font-weight:normal;font-stretch:normal;font-family:Serif;-inkscape-font-specification:Serif">puntos de</tspan><tspan
         sodipodi:role="line"
         x="439.25055"
         y="399.71518"
         id="tspan4898"
         style="font-size:15px;font-style:normal;font-variant:normal;font-weight:normal;font-stretch:normal;font-family:Serif;-inkscape-font-specification:Serif">soldadura</tspan></text>
  </g>
</svg>
