<?xml version="1.0" encoding="UTF-8" standalone="no"?>
<!-- Created with Inkscape (http://www.inkscape.org/) -->

<svg
   xmlns:dc="http://purl.org/dc/elements/1.1/"
   xmlns:cc="http://creativecommons.org/ns#"
   xmlns:rdf="http://www.w3.org/1999/02/22-rdf-syntax-ns#"
   xmlns:svg="http://www.w3.org/2000/svg"
   xmlns="http://www.w3.org/2000/svg"
   xmlns:sodipodi="http://sodipodi.sourceforge.net/DTD/sodipodi-0.dtd"
   xmlns:inkscape="http://www.inkscape.org/namespaces/inkscape"
   width="354.68906"
   height="93.355843"
   id="svg3749"
   version="1.1"
   inkscape:version="0.48.3.1 r9886"
   sodipodi:docname="Documento nuevo 3">
  <defs
     id="defs3751">
    <clipPath
       clipPathUnits="userSpaceOnUse"
       id="clipPath40">
      <path
         inkscape:connector-curvature="0"
         d="m 298.56,737.48 39.78,0 0,61.98 -39.78,0 0,-61.98 z"
         id="path42" />
    </clipPath>
    <clipPath
       clipPathUnits="userSpaceOnUse"
       id="clipPath16">
      <path
         inkscape:connector-curvature="0"
         d="m 70.92,765.74 13.32,0 0,19.62 -13.32,0 0,-19.62 z"
         id="path18" />
    </clipPath>
  </defs>
  <sodipodi:namedview
     id="base"
     pagecolor="#ffffff"
     bordercolor="#666666"
     borderopacity="1.0"
     inkscape:pageopacity="0.0"
     inkscape:pageshadow="2"
     inkscape:zoom="0.35"
     inkscape:cx="177.35187"
     inkscape:cy="46.687012"
     inkscape:document-units="px"
     inkscape:current-layer="layer1"
     showgrid="false"
     fit-margin-top="0"
     fit-margin-left="0"
     fit-margin-right="0"
     fit-margin-bottom="0"
     inkscape:window-width="563"
     inkscape:window-height="445"
     inkscape:window-x="456"
     inkscape:window-y="296"
     inkscape:window-maximized="0" />
  <metadata
     id="metadata3754">
    <rdf:RDF>
      <cc:Work
         rdf:about="">
        <dc:format>image/svg+xml</dc:format>
        <dc:type
           rdf:resource="http://purl.org/dc/dcmitype/StillImage" />
        <dc:title></dc:title>
      </cc:Work>
    </rdf:RDF>
  </metadata>
  <g
     inkscape:label="Capa 1"
     inkscape:groupmode="layer"
     id="layer1"
     transform="translate(-172.64813,-485.69335)">
    <g
       transform="matrix(1.25,0,0,-1.25,82.06219,1483.3496)"
       id="g12">
      <g
         id="g14"
         clip-path="url(#clipPath16)">
        <path
           inkscape:connector-curvature="0"
           d="m 72.84,779.06 1.68,0 0.96,-0.48 0.96,-0.96 0.72,-1.44 0.48,-1.92 0.24,-2.16"
           style="fill:none;stroke:#000000;stroke-width:0.71899998;stroke-linecap:square;stroke-linejoin:miter;stroke-miterlimit:10;stroke-opacity:1;stroke-dasharray:none"
           id="path20" />
      </g>
    </g>
    <path
       inkscape:connector-curvature="0"
       d="m 179.41219,518.22456 0,2.4 -0.3,2.4 0,1.8 -0.3,1.2 -0.6,0.6 -0.3,-0.6 -0.3,-1.2 0,-1.8 -0.3,-2.4 0,-2.4 0.3,-2.7 0.6,-2.4 0.9,-1.8 1.2,-1.2 1.2,-0.6 2.1,0 m -1.2,0 2.1,0 1.2,0.6 1.2,1.2 0.9,1.8 0.6,2.4 0.3,2.7 m 0,0 0,2.4 -0.3,2.4 0,1.8 -0.3,1.2 -0.6,0.6 -0.3,-0.6 -0.3,-1.2 0,-1.8 -0.3,-2.4 0,-2.4 0.3,-2.7 0.6,-2.4 0.9,-1.8 1.2,-1.2 1.2,-0.6 2.1,0 m -1.2,0 2.1,0 1.5,0.6 1.2,1.2 0.9,1.8 0.6,2.4 0.3,2.7 m 0,0 -0.3,2.4 0,2.4 -0.3,1.8 -0.3,1.2 -0.3,0.6 -0.3,-0.6 -0.3,-1.2 -0.3,-1.8 0,-2.4 -0.3,-2.4 0.3,-2.7 0.6,-2.4 0.9,-1.8 1.2,-1.2 1.5,-0.6 2.1,0 m -1.5,0 2.1,0 1.5,0.6 1.2,1.2 0.9,1.8 0.6,2.4 0.3,2.7 m 0,0 -0.3,2.4 0,2.4 -0.3,1.8 -0.3,1.2 -0.3,0.6 -0.3,-0.6 -0.3,-1.2 -0.3,-1.8 0,-2.4 -0.3,-2.4 0.3,-2.7 0.6,-2.4 0.9,-1.8 1.2,-1.2 1.5,-0.6 2.1,0 m -1.2,0 2.1,0 1.2,0.6 1.2,1.2 0.9,1.8 0.6,2.4 0.3,2.7 m 0,0 0,2.4 -0.3,2.4 0,1.8 -0.3,1.2 -0.3,0.6 -0.6,-0.6 -0.3,-1.2 0,-1.8 -0.3,-2.4 0,-2.4 0.3,-2.7 0.6,-2.4 0.9,-1.8 1.2,-1.2 1.2,-0.6 2.1,0 m -1.2,0 2.1,0 1.2,0.6 1.2,1.2 0.9,1.8 0.6,2.4 0.3,2.7 m 0,0 0,2.4 -0.3,2.4 0,1.8 -0.3,1.2 -0.3,0.6 -0.3,-0.6 -0.3,-1.2 -0.3,-1.8 -0.3,-2.4 0,-2.4 0.3,-2.7 0.6,-2.4 0.9,-1.8 1.2,-1.2 1.2,-0.6 2.1,0"
       style="fill:none;stroke:#000000;stroke-width:0.89874995;stroke-linecap:square;stroke-linejoin:miter;stroke-miterlimit:10;stroke-opacity:1;stroke-dasharray:none"
       id="path22" />
    <path
       inkscape:connector-curvature="0"
       d="m 229.21219,509.52456 2.4,0 1.2,0.6 1.2,1.2 0.9,1.8 0.6,2.4 0.3,2.7 m 0,0 0,2.4 -0.3,2.4 -0.3,1.8 -0.3,1.2 -0.3,0.6 -0.3,-0.6 -0.3,-1.2 -0.3,-1.8 0,-7.5 0.6,-2.4 0.9,-1.8 1.2,-1.2 1.5,-0.6 2.1,0 m -1.5,0 2.4,0 1.2,0.6 1.2,1.2 0.9,1.8 0.6,2.4 0.3,2.7 m 0,0 0,2.4 -0.3,2.4 -0.3,1.8 -0.3,1.2 -0.3,0.6 -0.3,-0.6 -0.3,-1.2 -0.3,-1.8 0,-7.5 0.6,-2.4 0.9,-1.8 1.2,-1.2 1.5,-0.6 2.1,0 m -2.4,0 2.1,0 1.5,0.6 1.2,1.2 0.9,1.8 0.6,2.4 0,7.5 -0.3,1.8 -0.3,1.2 -0.3,0.6 -0.3,-0.6 -0.3,-1.2 -0.3,-1.8 0,-2.4 -0.3,-2.4 0.3,-2.7 0.6,-2.4 0.9,-1.8 1.2,-1.2 1.5,-0.6 2.1,0 m -1.5,0 2.1,0 1.5,0.6 1.2,1.2 0.9,1.8 0.6,2.4 0.3,2.7 m 0,0 -0.3,2.4 0,2.4 -0.3,1.8 -0.3,1.2 -0.3,0.6 -0.3,-0.6 -0.3,-1.2 -0.3,-1.8 0,-2.4 -0.3,-2.4 0.3,-2.7 0.6,-2.4 0.9,-1.8 1.2,-1.2 1.5,-0.6 2.1,0 m -1.2,0 2.1,0 1.2,0.6 1.2,1.2 0.9,1.8 0.6,2.4 0.3,2.7 m 0,0 0,2.4 -0.3,2.4 0,1.8 -0.3,1.2 -0.3,0.6 -0.6,-0.6 -0.3,-1.2 0,-1.8 -0.3,-2.4 0,-2.4 0.3,-2.7 0.6,-2.4 0.9,-1.8 1.19999,-1.2 1.2,-0.6 2.1,0 m -1.2,0 2.1,0 1.2,0.6 1.2,1.2 0.9,1.8 0.6,2.4 0.3,2.7 m 0,0 0,2.4 -0.3,2.4 0,1.8 -0.3,1.2 -0.3,0.6 -0.6,-0.6 -0.3,-1.2 0,-1.8 -0.3,-2.4 0,-2.4 0.3,-2.7 0.6,-2.4 0.9,-1.8 1.2,-1.2 1.2,-0.6 2.1,0"
       style="fill:none;stroke:#000000;stroke-width:0.89874995;stroke-linecap:square;stroke-linejoin:miter;stroke-miterlimit:10;stroke-opacity:1;stroke-dasharray:none"
       id="path24" />
    <path
       inkscape:connector-curvature="0"
       d="m 284.41218,509.52456 2.1,0 1.5,0.6 1.2,1.2 0.9,1.8 0.6,2.4 0.3,2.7 m 0,0 -0.3,2.4 0,2.4 -0.3,1.8 -0.3,1.2 -0.3,0.6 -0.3,-0.6 -0.3,-1.2 -0.3,-1.8 0,-7.5 0.6,-2.4 0.9,-1.8 1.2,-1.2 1.5,-0.6 2.1,0 m -1.5,0 2.4,0 1.2,0.6 1.2,1.2 0.9,1.8 0.6,2.4 0.3,2.7 m 0,0 0,2.4 -0.3,2.4 -0.3,1.8 -0.3,1.2 -0.3,0.6 -0.3,-0.6 -0.3,-1.2 -0.3,-1.8 0,-7.5 0.6,-2.4 0.9,-1.8 1.2,-1.2 1.5,-0.6 2.1,0 m -1.2,0 2.1,0 1.2,0.6 1.2,1.2 1.2,1.8 0.6,2.4 0,7.5 -0.3,1.8 -0.3,1.2 -0.3,0.6 -0.3,-0.6 -0.3,-1.2 -0.3,-1.8 -0.3,-2.4 0,-2.4 0.3,-2.7 0.6,-2.4 0.9,-1.8 1.2,-1.2 1.2,-0.6 2.1,0 m -1.2,0 2.1,0 1.2,0.6 1.2,1.2 1.2,1.8 0.6,2.4 0,7.5 -0.3,1.8 -0.3,1.2 -0.3,0.6 -0.3,-0.6 -0.3,-1.2 -0.3,-1.8 -0.3,-2.4 0,-2.4 0.3,-2.7 0.6,-2.4 0.9,-1.8 1.2,-1.2 1.2,-0.6 2.1,0 m -4.5,0 2.4,0 1.2,0.6 1.2,1.2 0.9,1.8 0.6,2.4 0.3,2.7 m 0,0 0,2.4 -0.3,2.4 -0.3,1.8 -0.3,1.2 -0.3,0.6 -0.3,-0.6 -0.3,-1.2 -0.3,-1.8 0,-7.5 0.6,-2.4 0.9,-1.8 1.2,-1.2 1.5,-0.6 2.1,0 m -1.5,0 2.4,0 1.2,0.6 1.2,1.2 0.9,1.8 0.6,2.4 0.3,2.7 m 0,0 0,2.4 -0.3,2.4 -0.3,1.8 -0.3,1.2 -0.3,0.6 -0.3,-0.6 -0.3,-1.2 -0.3,-1.8 0,-7.5 0.6,-2.4 1.2,-1.8 0.9,-1.2 1.5,-0.6 2.1,0"
       style="fill:none;stroke:#000000;stroke-width:0.89874995;stroke-linecap:square;stroke-linejoin:miter;stroke-miterlimit:10;stroke-opacity:1;stroke-dasharray:none"
       id="path26" />
    <path
       inkscape:connector-curvature="0"
       d="m 337.51218,509.52456 2.1,0 1.5,0.6 0.9,1.2 1.2,1.8 0.6,2.4 0,7.5 -0.3,1.8 -0.3,1.2 -0.3,0.6 -0.3,-0.6 -0.3,-1.2 -0.3,-1.8 -0.3,-2.4 0,-2.4 0.3,-2.7 0.6,-2.4 0.9,-1.8 1.2,-1.2 1.2,-0.6 2.1,0 m -1.2,0 2.1,0 1.5,0.6 0.9,1.2 1.2,1.8 0.6,2.4 0,7.5 -0.3,1.8 -0.3,1.2 -0.3,0.6 -0.3,-0.6 -0.3,-1.2 -0.3,-1.8 -0.3,-2.4 0,-2.4 0.3,-2.7 0.6,-2.4 0.9,-1.8 1.2,-1.2 1.2,-0.6 2.4,0 m -1.2,0 2.1,0 1.2,0.6 1.2,1.2 0.9,1.8 0.6,2.4 0.3,2.7 m 0,0 0,2.4 -0.3,2.4 -0.3,1.8 -0.3,1.2 -0.3,0.6 -0.3,-0.6 -0.3,-1.2 -0.3,-1.8 0,-7.5 0.9,-2.4 0.9,-1.8 1.2,-1.2 1.2,-0.6 2.025,0 m -1.2,0 2.1,0 1.2,0.6 1.2,1.2 0.9,1.8 0.6,2.4 0.3,2.7 m 0,0 0,2.4 -0.3,2.4 -0.3,1.8 -0.3,1.2 -0.3,0.6 -0.3,-0.6 -0.3,-1.2 -0.3,-1.8 0,-4.8 0.3,-2.7 0.6,-2.4 0.9,-1.8 1.2,-1.2 1.2,-0.6 2.1,0 m -1.2,0 2.1,0 1.5,0.6 1.2,1.2 0.9,1.8 0.6,2.4 0,7.5 -0.3,1.8 -0.3,1.2 -0.3,0.6 -0.3,-0.6 -0.3,-1.2 -0.3,-1.8 0,-2.4 -0.3,-2.4 0.3,-2.7 0.6,-2.4 0.9,-1.8 1.2,-1.2 1.5,-0.6 2.1,0 m -1.5,0 2.1,0 1.5,0.6 1.2,1.2 0.9,1.8 0.6,2.4 0,7.5 -0.3,1.8 -0.3,1.2 -0.3,0.6 -0.3,-0.6 -0.3,-1.2 -0.3,-1.8 0,-2.4 -0.3,-2.4 0.3,-2.7 0.6,-2.4 0.9,-1.8 1.2,-1.2 1.5,-0.6 2.1,0"
       style="fill:none;stroke:#000000;stroke-width:0.89874995;stroke-linecap:square;stroke-linejoin:miter;stroke-miterlimit:10;stroke-opacity:1;stroke-dasharray:none"
       id="path28" />
    <path
       inkscape:connector-curvature="0"
       d="m 392.63718,509.52456 2.1,0 1.2,0.6 1.2,1.2 1.2,1.8 0.6,2.4 0,7.5 -0.3,1.8 -0.3,1.2 -0.3,0.6 -0.3,-0.6 -0.3,-1.2 -0.3,-1.8 -0.3,-2.4 0,-2.4 0.3,-2.7 0.6,-2.4 0.9,-1.8 1.2,-1.2 1.2,-0.6 2.1,0 m -1.2,0 2.1,0 1.2,0.6 1.2,1.2 1.2,1.8 0.6,2.4 0,7.5 -0.3,1.8 -0.3,1.2 -0.3,0.6 -0.3,-0.6 -0.3,-1.2 -0.3,-1.8 -0.3,-2.4 0,-2.4 0.3,-2.7 0.6,-2.4 0.9,-1.8 1.2,-1.2 1.2,-0.6 2.1,0 m -0.9,0 2.1,0 1.2,0.6 1.2,1.2 0.9,1.8 0.6,2.4 0.3,2.7 m 0,0 0,2.4 -0.3,2.4 -0.3,1.8 -0.3,1.2 -0.3,0.6 -0.3,-0.6 -0.3,-1.2 -0.3,-1.8 0,-7.5 0.6,-2.4 1.2,-1.8 1.2,-1.2 1.2,-0.6 2.1,0 m -1.2,0 2.1,0 1.2,0.6 1.2,1.2 0.9,1.8 0.6,2.4 0.3,2.7 m 0,0 0,2.4 -0.3,2.4 -0.3,1.8 -0.3,1.2 -0.3,0.6 -0.3,-0.6 -0.3,-1.2 -0.3,-1.8 0,-7.5 0.6,-2.4 1.2,-1.8 1.2,-1.2 1.2,-0.6 2.1,0 m -1.2,0 2.1,0 1.5,0.6 1.2,1.2 0.9,1.8 0.6,2.4 0,7.5 -0.3,1.8 -0.3,1.2 -0.3,0.6 -0.3,-0.6 -0.3,-1.2 -0.3,-1.8 -0.3,-2.4 0,-2.4 0.3,-2.7 0.6,-2.4 0.9,-1.8 1.2,-1.2 1.5,-0.6 2.1,0 m -1.5,0 2.1,0 1.5,0.6 1.2,1.2 0.9,1.8 0.6,2.4 0,7.5 -0.3,1.8 -0.3,1.2 -0.3,0.6 -0.3,-0.6 -0.3,-1.2 -0.3,-1.8 0,-2.4 -0.3,-2.4 0.3,-2.7 0.6,-2.4 0.9,-1.8 1.2,-1.2 1.5,-0.6 2.1,0"
       style="fill:none;stroke:#000000;stroke-width:0.89874995;stroke-linecap:square;stroke-linejoin:miter;stroke-miterlimit:10;stroke-opacity:1;stroke-dasharray:none"
       id="path30" />
    <path
       inkscape:connector-curvature="0"
       d="m 449.03718,509.52456 2.1,0 1.2,0.6 1.2,1.2 0.9,1.8 0.6,2.4 0.3,2.7 m 0,0 0,2.4 -0.3,2.4 0,1.8 -0.3,1.2 -0.6,0.6 -0.3,-0.6 -0.3,-1.2 0,-1.8 -0.3,-2.4 0,-2.4 0.3,-2.7 0.6,-2.4 0.9,-1.8 1.2,-1.2 1.2,-0.6 2.1,0 m -1.2,0 2.1,0 1.2,0.6 1.2,1.2 0.9,1.8 0.6,2.4 0.3,2.7 m 0,0 0,2.4 -0.3,2.4 0,1.8 -0.3,1.2 -0.6,0.6 -0.3,-0.6 -0.3,-1.2 0,-1.8 -0.3,-2.4 0,-2.4 0.3,-2.7 0.6,-2.4 0.9,-1.8 1.2,-1.2 1.2,-0.6 2.1,0"
       style="fill:none;stroke:#000000;stroke-width:0.89874995;stroke-linecap:square;stroke-linejoin:miter;stroke-miterlimit:10;stroke-opacity:1;stroke-dasharray:none"
       id="path32" />
    <path
       inkscape:connector-curvature="0"
       d="m 454.13718,542.44956 62.1,0 0,-44.925 -62.1,0 0,44.925 z"
       style="fill:#ffffff;fill-opacity:1;fill-rule:evenodd;stroke:#000000;stroke-width:0.89874995;stroke-linecap:square;stroke-linejoin:miter;stroke-miterlimit:10;stroke-opacity:1;stroke-dasharray:none"
       id="path34" />
    <g
       transform="matrix(1.25,0,0,-1.25,82.06219,1483.3496)"
       id="g36">
      <g
         id="g38"
         clip-path="url(#clipPath40)">
        <path
           inkscape:connector-curvature="0"
           d="m 304.86,743.84 27.12,0 0,53.94 -27.12,0 0,-53.94"
           style="fill:none;stroke:#000000;stroke-width:0.71899998;stroke-linecap:square;stroke-linejoin:miter;stroke-miterlimit:10;stroke-opacity:1;stroke-dasharray:none"
           id="path44" />
      </g>
    </g>
    <text
       style="font-size:15px"
       y="524.52417"
       x="473.93719"
       id="text46">
      <tspan
         style="font-size:14.9891243px;font-variant:normal;font-weight:normal;writing-mode:lr-tb;fill:#000000;fill-opacity:1;fill-rule:nonzero;stroke:none;font-family:Arial Black;-inkscape-font-specification:Arial"
         x="473.93719"
         y="524.52417"
         id="tspan48">M</tspan>
    </text>
    <path
       inkscape:connector-curvature="0"
       d="m 440.63718,559.24956 83.4,0"
       style="fill:none;stroke:#000000;stroke-width:0.89874995;stroke-linecap:square;stroke-linejoin:miter;stroke-miterlimit:10;stroke-opacity:1;stroke-dasharray:none"
       id="path50" />
    <path
       inkscape:connector-curvature="0"
       d="m 441.53718,563.44956 -4.2,-4.2 4.2,-3.9 0,8.1"
       style="fill:#000000;fill-opacity:1;fill-rule:evenodd;stroke:none"
       id="path52" />
    <path
       inkscape:connector-curvature="0"
       d="m 523.43718,555.34956 3.9,3.9 -3.9,4.2 0,-8.1"
       style="fill:#000000;fill-opacity:1;fill-rule:evenodd;stroke:none"
       id="path54" />
    <text
       style="font-size:15px"
       y="579.04919"
       x="474.83719"
       id="text56">
      <tspan
         style="font-size:14.9891243px;font-variant:normal;font-weight:normal;writing-mode:lr-tb;fill:#000000;fill-opacity:1;fill-rule:nonzero;stroke:none;font-family:Arial Black;-inkscape-font-specification:Arial"
         x="474.83719 483.99554 492.74918 497.74057 506.89893"
         y="579.04919"
         sodipodi:role="line"
         id="tspan58">F=-Zv</tspan>
    </text>
  </g>
</svg>
