<?xml version="1.0" encoding="UTF-8" standalone="no"?>
<!-- Created with Inkscape (http://www.inkscape.org/) -->

<svg
   xmlns:dc="http://purl.org/dc/elements/1.1/"
   xmlns:cc="http://creativecommons.org/ns#"
   xmlns:rdf="http://www.w3.org/1999/02/22-rdf-syntax-ns#"
   xmlns:svg="http://www.w3.org/2000/svg"
   xmlns="http://www.w3.org/2000/svg"
   xmlns:sodipodi="http://sodipodi.sourceforge.net/DTD/sodipodi-0.dtd"
   xmlns:inkscape="http://www.inkscape.org/namespaces/inkscape"
   width="324.76407"
   height="68.53125"
   id="svg3796"
   version="1.1"
   inkscape:version="0.48.3.1 r9886"
   sodipodi:docname="Documento nuevo 7">
  <defs
     id="defs3798">
    <clipPath
       clipPathUnits="userSpaceOnUse"
       id="clipPath568">
      <path
         inkscape:connector-curvature="0"
         d="m 70.92,190.22 13.32,0 0,19.38 -13.32,0 0,-19.38 z"
         id="path570" />
    </clipPath>
  </defs>
  <sodipodi:namedview
     id="base"
     pagecolor="#ffffff"
     bordercolor="#666666"
     borderopacity="1.0"
     inkscape:pageopacity="0.0"
     inkscape:pageshadow="2"
     inkscape:zoom="0.35"
     inkscape:cx="162.38906"
     inkscape:cy="34.262817"
     inkscape:document-units="px"
     inkscape:current-layer="layer1"
     showgrid="false"
     fit-margin-top="0"
     fit-margin-left="0"
     fit-margin-right="0"
     fit-margin-bottom="0"
     inkscape:window-width="563"
     inkscape:window-height="445"
     inkscape:window-x="226"
     inkscape:window-y="99"
     inkscape:window-maximized="0" />
  <metadata
     id="metadata3801">
    <rdf:RDF>
      <cc:Work
         rdf:about="">
        <dc:format>image/svg+xml</dc:format>
        <dc:type
           rdf:resource="http://purl.org/dc/dcmitype/StillImage" />
        <dc:title></dc:title>
      </cc:Work>
    </rdf:RDF>
  </metadata>
  <g
     inkscape:label="Capa 1"
     inkscape:groupmode="layer"
     id="layer1"
     transform="translate(-187.61094,-498.09375)">
    <g
       transform="matrix(1.25,0,0,-1.25,97.025003,776.28718)"
       id="g564">
      <g
         id="g566"
         clip-path="url(#clipPath568)">
        <path
           inkscape:connector-curvature="0"
           d="m 72.84,203.3 1.68,0 0.96,-0.24 0.96,-0.96 0.72,-1.44 0.48,-1.92 0.24,-2.16"
           style="fill:none;stroke:#000000;stroke-width:0.71899998;stroke-linecap:square;stroke-linejoin:miter;stroke-miterlimit:10;stroke-opacity:1;stroke-dasharray:none"
           id="path572" />
      </g>
    </g>
    <path
       inkscape:connector-curvature="0"
       d="m 194.375,530.56218 0,2.4 -0.3,2.4 0,2.1 -0.3,1.2 -0.6,0.3 -0.3,-0.3 -0.3,-1.2 0,-2.1 -0.3,-2.4 0,-2.4 0.3,-2.7 0.6,-2.4 0.9,-1.8 1.2,-1.2 1.2,-0.3 2.1,0 m -1.2,0 2.1,0 1.2,0.3 1.2,1.2 0.9,1.8 0.6,2.4 0.3,2.7 m 0,0 0,2.4 -0.3,2.4 0,2.1 -0.3,1.2 -0.6,0.3 -0.3,-0.3 -0.3,-1.2 0,-2.1 -0.3,-2.4 0,-2.4 0.3,-2.7 0.6,-2.4 0.9,-1.8 1.2,-1.2 1.2,-0.3 2.1,0 m -1.2,0 2.1,0 1.5,0.3 1.2,1.2 0.9,1.8 0.6,2.4 0.3,2.7 m 0,0 -0.3,2.4 0,2.4 -0.3,2.1 -0.3,1.2 -0.3,0.3 -0.3,-0.3 -0.3,-1.2 -0.3,-2.1 0,-2.4 -0.3,-2.4 0.3,-2.7 0.6,-2.4 0.9,-1.8 1.2,-1.2 1.5,-0.3 2.1,0 m -1.5,0 2.1,0 1.5,0.3 1.2,1.2 0.9,1.8 0.6,2.4 0.3,2.7 m 0,0 -0.3,2.4 0,2.4 -0.3,2.1 -0.3,1.2 -0.3,0.3 -0.3,-0.3 -0.3,-1.2 -0.3,-2.1 0,-7.5 0.6,-2.4 0.9,-1.8 1.2,-1.2 1.5,-0.3 2.1,0 m -1.2,0 2.1,0 1.2,0.3 1.2,1.2 0.9,1.8 0.6,2.4 0.3,2.7 m 0,0 0,2.4 -0.3,2.4 0,2.1 -0.3,1.2 -0.3,0.3 -0.3,-0.3 -0.3,-1.2 -0.3,-2.1 -0.3,-2.4 0,-2.4 0.3,-2.7 0.6,-2.4 0.9,-1.8 1.2,-1.2 1.2,-0.3 2.1,0 m -1.2,0 2.1,0 1.2,0.3 1.2,1.2 1.2,1.8 0.6,2.4 0,7.5 -0.3,2.1 -0.3,1.2 -0.3,0.3 -0.3,-0.3 -0.3,-1.2 -0.3,-2.1 -0.3,-2.4 0,-2.4 0.3,-2.7 0.6,-2.4 0.9,-1.8 1.2,-1.2 1.2,-0.3 2.1,0"
       style="fill:none;stroke:#000000;stroke-width:0.89874995;stroke-linecap:square;stroke-linejoin:miter;stroke-miterlimit:10;stroke-opacity:1;stroke-dasharray:none"
       id="path574" />
    <path
       inkscape:connector-curvature="0"
       d="m 244.175,522.16218 2.4,0 1.2,0.3 1.2,1.2 0.9,1.8 0.6,2.4 0.3,2.7 m 0,0 0,2.4 -0.3,2.4 -0.3,2.1 -0.3,1.2 -0.3,0.3 -0.3,-0.3 -0.3,-1.2 -0.3,-2.1 0,-7.5 0.6,-2.4 1.2,-1.8 0.9,-1.2 1.5,-0.3 2.1,0 m -1.2,0 2.1,0 1.2,0.3 1.2,1.2 0.9,1.8 0.6,2.4 0.3,2.7 m 0,0 0,2.4 -0.3,2.4 -0.3,2.1 -0.3,1.2 -0.3,0.3 -0.3,-0.3 -0.3,-1.2 -0.3,-2.1 0,-7.5 0.6,-2.4 1.2,-1.8 1.2,-1.2 1.2,-0.3 2.1,0 m -2.4,0 2.1,0 1.5,0.3 1.2,1.2 0.9,1.8 0.6,2.4 0.3,2.7 m 0,0 -0.3,2.4 0,2.4 -0.3,2.1 -0.3,1.2 -0.3,0.3 -0.3,-0.3 -0.3,-1.2 -0.3,-2.1 0,-2.4 -0.3,-2.4 0.3,-2.7 0.6,-2.4 0.9,-1.8 1.2,-1.2 1.5,-0.3 2.1,0 m -1.5,0 2.025,0 1.5,0.3 1.2,1.2 0.9,1.8 0.6,2.4 0.3,2.7 m 0,0 -0.3,2.4 0,2.4 -0.3,2.1 -0.3,1.2 -0.3,0.3 -0.3,-0.3 -0.3,-1.2 -0.3,-2.1 0,-7.5 0.6,-2.4 0.9,-1.8 1.2,-1.2 1.5,-0.3 2.1,0 m -1.2,0 2.1,0 1.2,0.3 1.2,1.2 0.9,1.8 0.6,2.4 0.3,2.7 m 0,0 0,2.4 -0.3,2.4 0,2.1 -0.3,1.2 -0.3,0.3 -0.3,-0.3 -0.3,-1.2 -0.3,-2.1 -0.3,-2.4 0,-2.4 0.3,-2.7 0.6,-2.4 0.9,-1.8 1.2,-1.2 1.2,-0.3 2.1,0 m -1.2,0 2.1,0 1.2,0.3 1.2,1.2 1.2,1.8 0.6,2.4 0,7.5 -0.3,2.1 -0.3,1.2 -0.3,0.3 -0.3,-0.3 -0.3,-1.2 -0.3,-2.1 -0.3,-2.4 0,-2.4 0.3,-2.7 0.6,-2.4 0.9,-1.8 1.2,-1.2 1.2,-0.3 2.1,0"
       style="fill:none;stroke:#000000;stroke-width:0.89874995;stroke-linecap:square;stroke-linejoin:miter;stroke-miterlimit:10;stroke-opacity:1;stroke-dasharray:none"
       id="path576" />
    <path
       inkscape:connector-curvature="0"
       d="m 299.3,522.16218 2.4,0 1.2,0.3 1.2,1.2 0.9,1.8 0.6,2.4 0.3,2.7 m 0,0 0,2.4 -0.3,2.4 -0.3,2.1 -0.3,1.2 -0.3,0.3 -0.3,-0.3 -0.3,-1.2 -0.3,-2.1 0,-7.5 0.6,-2.4 1.2,-1.8 0.9,-1.2 1.5,-0.3 2.1,0 m -1.2,0 2.1,0 1.2,0.3 1.2,1.2 0.9,1.8 0.6,2.4 0.3,2.7 m 0,0 0,2.4 -0.3,2.4 -0.3,2.1 -0.3,1.2 -0.3,0.3 -0.3,-0.3 -0.3,-1.2 -0.3,-2.1 0,-7.5 0.6,-2.4 1.2,-1.8 1.2,-1.2 1.2,-0.3 2.1,0 m -1.2,0 2.1,0 1.5,0.3 1.2,1.2 0.9,1.8 0.6,2.4 0,7.5 -0.3,2.1 -0.3,1.2 -0.3,0.3 -0.3,-0.3 -0.3,-1.2 -0.3,-2.1 -0.3,-2.4 0,-2.4 0.3,-2.7 0.6,-2.4 0.9,-1.8 1.2,-1.2 1.2,-0.3 2.4,0 m -1.5,0 2.1,0 1.5,0.3 1.2,1.2 0.9,1.8 0.6,2.4 0,7.5 -0.3,2.1 -0.3,1.2 -0.3,0.3 -0.3,-0.3 -0.3,-1.2 -0.3,-2.1 -0.3,-2.4 0,-2.4 0.3,-2.7 0.6,-2.4 0.9,-1.8 1.2,-1.2 1.5,-0.3 2.1,0 m -4.5,0 2.1,0 1.2,0.3 1.2,1.2 0.9,1.8 0.6,2.4 0.3,2.7 m 0,0 0,2.4 -0.3,2.4 -0.3,2.1 -0.3,1.2 -0.3,0.3 -0.3,-0.3 -0.3,-1.2 -0.3,-2.1 0,-7.5 0.6,-2.4 1.2,-1.8 1.2,-1.2 1.2,-0.3 2.1,0 m -1.2,0 2.1,0 1.2,0.3 1.2,1.2 0.9,1.8 0.6,2.4 0.3,2.7 m 0,0 0,2.4 -0.3,2.4 -0.3,2.1 -0.3,1.2 -0.3,0.3 -0.3,-0.3 -0.3,-1.2 -0.3,-2.1 0,-4.8 0.3,-2.7 0.6,-2.4 0.9,-1.8 1.2,-1.2 1.2,-0.3 2.1,0"
       style="fill:none;stroke:#000000;stroke-width:0.89874995;stroke-linecap:square;stroke-linejoin:miter;stroke-miterlimit:10;stroke-opacity:1;stroke-dasharray:none"
       id="path578" />
    <path
       inkscape:connector-curvature="0"
       d="m 352.4,522.16218 2.1,0 1.5,0.3 1.2,1.2 0.9,1.8 0.6,2.4 0,7.5 -0.3,2.1 -0.3,1.2 -0.3,0.3 -0.3,-0.3 -0.3,-1.2 -0.3,-2.1 0,-2.4 -0.3,-2.4 0.3,-2.7 0.6,-2.4 0.9,-1.8 1.2,-1.2 1.5,-0.3 2.1,0 m -1.5,0 2.1,0 1.5,0.3 1.2,1.2 0.9,1.8 0.6,2.4 0.3,2.7 m 0,0 -0.3,2.4 0,2.4 -0.3,2.1 -0.3,1.2 -0.3,0.3 -0.3,-0.3 -0.3,-1.2 -0.3,-2.1 0,-2.4 -0.3,-2.4 0.3,-2.7 0.6,-2.4 0.9,-1.8 1.2,-1.2 1.5,-0.3 2.1,0 m -1.2,0 2.1,0 1.2,0.3 1.2,1.2 0.9,1.8 0.6,2.4 0.3,2.7 m 0,0 0,2.4 -0.3,2.4 0,2.1 -0.3,1.2 -0.3,0.3 -0.6,-0.3 -0.3,-1.2 0,-2.1 -0.3,-2.4 0,-2.4 0.3,-2.7 0.6,-2.4 0.9,-1.8 1.2,-1.2 1.2,-0.3 2.1,0 m -1.2,0 2.1,0 1.2,0.3 1.2,1.2 0.9,1.8 0.6,2.4 0.3,2.7 m 0,0 0,2.4 -0.3,2.4 0,2.1 -0.3,1.2 -0.3,0.3 -0.6,-0.3 -0.3,-1.2 0,-2.1 -0.3,-2.4 0,-2.4 0.3,-2.7 0.6,-2.4 0.9,-1.8 1.2,-1.2 1.2,-0.3 2.1,0 m -1.2,0 2.1,0 1.5,0.3 1.2,1.2 0.9,1.8 0.6,2.4 0.3,2.7 m 0,0 0,2.4 -0.3,2.4 -0.3,2.1 -0.3,1.2 -0.3,0.3 -0.3,-0.3 -0.3,-1.2 -0.3,-2.1 0,-7.5 0.6,-2.4 0.9,-1.8 1.2,-1.2 1.5,-0.3 2.1,0 m -1.5,0 2.4,0 1.2,0.3 1.2,1.2 0.9,1.8 0.6,2.4 0.3,2.7 m 0,0 0,2.4 -0.3,2.4 -0.3,2.1 -0.3,1.2 -0.3,0.3 -0.3,-0.3 -0.3,-1.2 -0.3,-2.1 0,-7.5 0.6,-2.4 0.9,-1.8 1.2,-1.2 1.5,-0.3 2.1,0"
       style="fill:none;stroke:#000000;stroke-width:0.89874995;stroke-linecap:square;stroke-linejoin:miter;stroke-miterlimit:10;stroke-opacity:1;stroke-dasharray:none"
       id="path580" />
    <path
       inkscape:connector-curvature="0"
       d="m 407.6,522.16218 2.1,0 1.5,0.3 1.2,1.2 0.9,1.8 0.6,2.4 0,7.5 -0.3,2.1 -0.3,1.2 -0.3,0.3 -0.3,-0.3 -0.3,-1.2 -0.3,-2.1 0,-2.4 -0.3,-2.4 0.3,-2.7 0.6,-2.4 0.9,-1.8 1.2,-1.2 1.5,-0.3 2.1,0 m -1.5,0 2.1,0 1.5,0.3 1.2,1.2 0.9,1.8 0.6,2.4 0.3,2.7 m 0,0 -0.3,2.4 0,2.4 -0.3,2.1 -0.3,1.2 -0.3,0.3 -0.3,-0.3 -0.3,-1.2 -0.3,-2.1 0,-2.4 -0.3,-2.4 0.3,-2.7 0.6,-2.4 0.9,-1.8 1.2,-1.2 1.5,-0.3 2.1,0 m -1.2,0 2.1,0 1.2,0.3 1.2,1.2 0.9,1.8 0.6,2.4 0.3,2.7 m 0,0 0,2.4 -0.3,2.4 0,2.1 -0.3,1.2 -0.3,0.3 -0.6,-0.3 -0.3,-1.2 0,-2.1 -0.3,-2.4 0,-2.4 0.3,-2.7 0.6,-2.4 0.9,-1.8 1.2,-1.2 1.2,-0.3 2.1,0 m -1.2,0 2.025,0 1.2,0.3 1.2,1.2 0.9,1.8 0.6,2.4 0.3,2.7 m 0,0 0,2.4 -0.3,2.4 0,2.1 -0.3,1.2 -0.3,0.3 -0.6,-0.3 -0.3,-1.2 0,-2.1 -0.3,-2.4 0,-2.4 0.3,-2.7 0.6,-2.4 0.9,-1.8 1.2,-1.2 1.2,-0.3 2.1,0 m -1.2,0 2.1,0 1.5,0.3 1.2,1.2 0.9,1.8 0.6,2.4 0.3,2.7 m 0,0 0,2.4 -0.3,2.4 -0.3,2.1 -0.3,1.2 -0.3,0.3 -0.3,-0.3 -0.3,-1.2 -0.3,-2.1 0,-7.5 0.6,-2.4 0.9,-1.8 1.2,-1.2 1.5,-0.3 2.1,0 m -1.5,0 2.4,0 1.2,0.3 1.2,1.2 0.9,1.8 0.6,2.4 0.3,2.7 m 0,0 0,2.4 -0.3,2.4 -0.3,2.1 -0.3,1.2 -0.3,0.3 -0.3,-0.3 -0.3,-1.2 -0.3,-2.1 0,-7.5 0.6,-2.4 0.9,-1.8 1.2,-1.2 1.5,-0.3 2.1,0"
       style="fill:none;stroke:#000000;stroke-width:0.89874995;stroke-linecap:square;stroke-linejoin:miter;stroke-miterlimit:10;stroke-opacity:1;stroke-dasharray:none"
       id="path582" />
    <path
       inkscape:connector-curvature="0"
       d="m 463.925,522.16218 2.1,0 1.2,0.3 1.2,1.2 1.2,1.8 0.6,2.4 0,7.5 -0.3,2.1 -0.3,1.2 -0.3,0.3 -0.3,-0.3 -0.3,-1.2 -0.3,-2.1 -0.3,-2.4 0,-2.4 0.3,-2.7 0.6,-2.4 0.9,-1.8 1.2,-1.2 1.2,-0.3 2.1,0 m -1.2,0 2.1,0 1.5,0.3 0.9,1.2 1.2,1.8 0.6,2.4 0,7.5 -0.3,2.1 -0.3,1.2 -0.3,0.3 -0.3,-0.3 -0.3,-1.2 -0.3,-2.1 -0.3,-2.4 0,-2.4 0.3,-2.7 0.6,-2.4 0.9,-1.8 1.2,-1.2 1.2,-0.3 2.4,0"
       style="fill:none;stroke:#000000;stroke-width:0.89874995;stroke-linecap:square;stroke-linejoin:miter;stroke-miterlimit:10;stroke-opacity:1;stroke-dasharray:none"
       id="path584" />
    <path
       inkscape:connector-curvature="0"
       d="m 478.325,566.18718 33.6,0 0,-67.65 -33.6,0 0,67.65 z"
       style="fill:#ffffff;fill-opacity:1;fill-rule:evenodd;stroke:#000000;stroke-width:0.89874995;stroke-linecap:square;stroke-linejoin:miter;stroke-miterlimit:10;stroke-opacity:1;stroke-dasharray:none"
       id="path586" />
    <text
       style="font-size:15px"
       y="536.86182"
       x="489.12503"
       id="text588">
      <tspan
         style="font-size:14.96862507px;font-variant:normal;font-weight:normal;writing-mode:lr-tb;fill:#000000;fill-opacity:1;fill-rule:nonzero;stroke:none;font-family:Arial Black;-inkscape-font-specification:Arial"
         x="489.12503"
         y="536.86182"
         id="tspan590">M</tspan>
    </text>
  </g>
</svg>
