<?xml version="1.0" encoding="UTF-8" standalone="no"?>
<!-- Created with Inkscape (http://www.inkscape.org/) -->

<svg
   xmlns:dc="http://purl.org/dc/elements/1.1/"
   xmlns:cc="http://creativecommons.org/ns#"
   xmlns:rdf="http://www.w3.org/1999/02/22-rdf-syntax-ns#"
   xmlns:svg="http://www.w3.org/2000/svg"
   xmlns="http://www.w3.org/2000/svg"
   xmlns:sodipodi="http://sodipodi.sourceforge.net/DTD/sodipodi-0.dtd"
   xmlns:inkscape="http://www.inkscape.org/namespaces/inkscape"
   width="225.68843"
   height="102.61382"
   id="svg3145"
   version="1.1"
   inkscape:version="0.48.3.1 r9886"
   sodipodi:docname="Documento nuevo 3">
  <defs
     id="defs3147" />
  <sodipodi:namedview
     id="base"
     pagecolor="#ffffff"
     bordercolor="#666666"
     borderopacity="1.0"
     inkscape:pageopacity="0.0"
     inkscape:pageshadow="2"
     inkscape:zoom="0.35"
     inkscape:cx="112.84421"
     inkscape:cy="51.311675"
     inkscape:document-units="px"
     inkscape:current-layer="layer1"
     showgrid="false"
     fit-margin-top="0"
     fit-margin-left="0"
     fit-margin-right="0"
     fit-margin-bottom="0"
     inkscape:window-width="563"
     inkscape:window-height="445"
     inkscape:window-x="456"
     inkscape:window-y="296"
     inkscape:window-maximized="0" />
  <metadata
     id="metadata3150">
    <rdf:RDF>
      <cc:Work
         rdf:about="">
        <dc:format>image/svg+xml</dc:format>
        <dc:type
           rdf:resource="http://purl.org/dc/dcmitype/StillImage" />
        <dc:title></dc:title>
      </cc:Work>
    </rdf:RDF>
  </metadata>
  <g
     inkscape:label="Capa 1"
     inkscape:groupmode="layer"
     id="layer1"
     transform="translate(-237.15579,-481.06005)">
    <path
       inkscape:connector-curvature="0"
       d="m 307.7375,566.48718 2.1,0 1.5,0.3 1.2,1.2 0.9,1.8 0.6,2.4 0.3,2.625 -0.3,2.4 0,2.4 -0.3,2.1 -0.3,1.2 -0.3,0.3 -0.3,-0.3 -0.3,-1.2 -0.3,-2.1 0,-7.425 0.6,-2.4 0.9,-1.8 1.2,-1.2 1.5,-0.3 2.1,0 m -1.5,0 2.1,0 1.5,0.3 1.2,1.2 0.9,1.8 0.6,2.4 0.3,2.625 -0.3,2.4 0,2.4 -0.3,2.1 -0.3,1.2 -0.3,0.3 -0.3,-0.3 -0.3,-1.2 -0.3,-2.1 0,-7.425 0.6,-2.4 0.9,-1.8 1.2,-1.2 1.5,-0.3 2.1,0 m -1.2,0 2.1,0 1.2,0.3 1.2,1.2 1.2,1.8 0.6,2.4 0,7.425 -0.3,2.1 -0.3,1.2 -0.3,0.3 -0.3,-0.3 -0.3,-1.2 -0.3,-2.1 -0.3,-2.4 0,-2.4 0.3,-2.625 0.6,-2.4 0.9,-1.8 1.2,-1.2 1.2,-0.3 2.1,0 m -1.2,0 2.1,0 1.2,0.3 1.2,1.2 1.2,1.8 0.6,2.4 0,7.425 -0.3,2.1 -0.3,1.2 -0.3,0.3 -0.3,-0.3 -0.3,-1.2 -0.3,-2.1 -0.3,-2.4 0,-2.4 0.3,-2.625 0.6,-2.4 0.9,-1.8 1.2,-1.2 1.2,-0.3 2.1,0 m 7.125,0 2.1,0 1.5,0.3 1.2,1.2 0.9,1.8 0.6,2.4 0,7.425 -0.3,2.1 -0.3,1.2 -0.3,0.3 -0.3,-0.3 -0.3,-1.2 -0.3,-2.1 -0.3,-2.4 0,-2.4 0.3,-2.625 0.6,-2.4 0.9,-1.8 1.2,-1.2 1.2,-0.3 2.4,0 m -1.5,0 2.1,0 1.5,0.3 1.2,1.2 0.9,1.8 0.6,2.4 0,7.425 -0.3,2.1 -0.3,1.2 -0.3,0.3 -0.3,-0.3 -0.3,-1.2 -0.3,-2.1 0,-2.4 -0.3,-2.4 0.3,-2.625 0.6,-2.4 0.9,-1.8 1.2,-1.2 1.5,-0.3 2.1,0 m -1.2,0 2.1,0 1.2,0.3 1.2,1.2 0.9,1.8 0.6,2.4 0.3,2.625"
       style="fill:none;stroke:#000000;stroke-width:0.89749998;stroke-linecap:round;stroke-linejoin:round;stroke-miterlimit:10;stroke-opacity:1;stroke-dasharray:none"
       id="path120" />
    <path
       inkscape:connector-curvature="0"
       d="m 378.7625,574.81218 0,2.4 -0.3,2.4 0,2.1 -0.3,1.2 -0.6,0.3 -0.3,-0.3 -0.3,-1.2 0,-2.1 -0.3,-2.4 0,-2.4 0.3,-2.625 0.6,-2.4 0.9,-1.8 1.2,-1.2 1.2,-0.3 2.1,0 m -1.2,0 2.1,0 1.2,0.3 1.2,1.2 0.9,1.8 0.6,2.4 0.3,2.625 0,2.4 -0.3,2.4 0,2.1 -0.3,1.2 -0.6,0.3 -0.3,-0.3 -0.3,-1.2 0,-2.1 -0.3,-2.4 0,-2.4 0.3,-2.625 0.6,-2.4 0.9,-1.8 1.2,-1.2 1.2,-0.3 2.1,0 m 6,0 2.1,0 1.2,0.3 1.2,1.2 0.9,1.8 0.6,2.4 0.3,2.625 0,2.4 -0.3,2.4 -0.3,2.1 -0.3,1.2 -0.3,0.3 -0.3,-0.3 -0.3,-1.2 -0.3,-2.1 0,-7.425 0.9,-2.4 0.9,-1.8 1.2,-1.2 1.2,-0.3 2.1,0 m -1.2,0 2.1,0 1.2,0.3 1.2,1.2 0.9,1.8 0.6,2.4 0.3,2.625 0,2.4 -0.3,2.4 -0.3,2.1 -0.3,1.2 -0.3,0.3 -0.3,-0.3 -0.3,-1.2 0,-2.1 -0.3,-2.4 0,-2.4 0.3,-2.625 0.6,-2.4 0.9,-1.8 1.2,-1.2 1.2,-0.3 2.1,0 m -1.2,0 2.1,0 1.5,0.3 1.2,1.2 0.9,1.8 0.6,2.4 0.3,2.625 -0.3,2.4 0,2.4 -0.3,2.1 -0.3,1.2 -0.3,0.3 -0.3,-0.3 -0.3,-1.2 -0.3,-2.1 0,-2.4 -0.3,-2.4 0.3,-2.625 0.6,-2.4 0.9,-1.8 1.2,-1.2 1.5,-0.3 2.1,0 m -1.5,0 2.1,0 1.425,0.3 1.2,1.2 0.9,1.8 0.6,2.4 0.3,2.625 -0.3,2.4 0,2.4 -0.3,2.1 -0.3,1.2 -0.3,0.3 -0.3,-0.3 -0.3,-1.2 -0.3,-2.1 0,-2.4 -0.3,-2.4 0.3,-2.625 0.6,-2.4 0.9,-1.8 1.2,-1.2 1.5,-0.3 2.1,0"
       style="fill:none;stroke:#000000;stroke-width:0.89749998;stroke-linecap:round;stroke-linejoin:round;stroke-miterlimit:10;stroke-opacity:1;stroke-dasharray:none"
       id="path122" />
    <path
       inkscape:connector-curvature="0"
       d="m 263.1125,566.48718 2.1,0 1.5,0.3 1.2,1.2 0.9,1.8 0.6,2.4 0.3,2.625 -0.3,2.4 0,2.4 -0.3,2.1 -0.3,1.2 -0.3,0.3 -0.3,-0.3 -0.3,-1.2 -0.3,-2.1 0,-2.4 -0.3,-2.4 0.3,-2.625 0.6,-2.4 0.9,-1.8 1.2,-1.2 1.5,-0.3 2.1,0 m -1.5,0 2.1,0 1.425,0.3 1.2,1.2 0.9,1.8 0.6,2.4 0.3,2.625 -0.3,2.4 0,2.4 -0.3,2.1 -0.3,1.2 -0.3,0.3 -0.3,-0.3 -0.3,-1.2 -0.3,-2.1 0,-2.4 -0.3,-2.4 0.3,-2.625 0.6,-2.4 0.9,-1.8 1.2,-1.2 1.5,-0.3 2.1,0 m -1.2,0 2.1,0 1.2,0.3 1.2,1.2 0.9,1.8 0.6,2.4 0.3,2.625 0,2.4 -0.3,2.4 0,2.1 -0.3,1.2 -0.3,0.3 -0.3,-0.3 -0.3,-1.2 -0.3,-2.1 -0.3,-2.4 0,-2.4 0.3,-2.625 0.6,-2.4 0.9,-1.8 1.2,-1.2 1.2,-0.3 2.1,0 m -1.2,0 2.1,0 1.2,0.3 1.2,1.2 0.9,1.8 0.9,2.4 0,7.425 -0.3,2.1 -0.3,1.2 -0.3,0.3 -0.3,-0.3 -0.3,-1.2 -0.3,-2.1 -0.3,-2.4 0,-2.4 0.3,-2.625 0.6,-2.4 0.9,-1.8 1.2,-1.2 1.2,-0.3 2.1,0"
       style="fill:none;stroke:#000000;stroke-width:0.89749998;stroke-linecap:round;stroke-linejoin:round;stroke-miterlimit:10;stroke-opacity:1;stroke-dasharray:none"
       id="path124" />
    <path
       inkscape:connector-curvature="0"
       d="m 302.0375,583.21218 5.7,0 0,-22.425 -5.7,0 0,22.425 z"
       style="fill:#000000;fill-opacity:1;fill-rule:evenodd;stroke:#000000;stroke-width:0.89749998;stroke-linecap:round;stroke-linejoin:round;stroke-miterlimit:10;stroke-opacity:1;stroke-dasharray:none"
       id="path126" />
    <path
       inkscape:connector-curvature="0"
       d="m 347.3375,583.21218 5.325,0 0,-22.425 -5.325,0 0,22.425 z"
       style="fill:#000000;fill-opacity:1;fill-rule:evenodd;stroke:#000000;stroke-width:0.89749998;stroke-linecap:round;stroke-linejoin:round;stroke-miterlimit:10;stroke-opacity:1;stroke-dasharray:none"
       id="path128" />
    <path
       inkscape:connector-curvature="0"
       d="m 392.2625,583.21218 5.7,0 0,-22.425 -5.7,0 0,22.425 z"
       style="fill:#000000;fill-opacity:1;fill-rule:evenodd;stroke:#000000;stroke-width:0.89749998;stroke-linecap:round;stroke-linejoin:round;stroke-miterlimit:10;stroke-opacity:1;stroke-dasharray:none"
       id="path130" />
    <path
       inkscape:connector-curvature="0"
       d="m 434.1875,583.21218 5.7,0 0,-22.425 -5.7,0 0,22.425 z"
       style="fill:#000000;fill-opacity:1;fill-rule:evenodd;stroke:#000000;stroke-width:0.89749998;stroke-linecap:round;stroke-linejoin:round;stroke-miterlimit:10;stroke-opacity:1;stroke-dasharray:none"
       id="path132" />
    <path
       inkscape:connector-curvature="0"
       d="m 257.1125,583.21218 5.7,0 0,-22.425 -5.7,0 0,22.425 z"
       style="fill:#000000;fill-opacity:1;fill-rule:evenodd;stroke:#000000;stroke-width:0.89749998;stroke-linecap:round;stroke-linejoin:round;stroke-miterlimit:10;stroke-opacity:1;stroke-dasharray:none"
       id="path134" />
    <text
       style="font-size:15px"
       y="553.88684"
       x="388.0625"
       id="text136">
      <tspan
         style="font-size:14.9574995px;font-variant:normal;font-weight:normal;writing-mode:lr-tb;fill:#000000;fill-opacity:1;fill-rule:nonzero;stroke:none;font-family:Arial Black;-inkscape-font-specification:Arial"
         x="388.0625"
         y="553.88684"
         id="tspan138">m</tspan>
    </text>
    <path
       inkscape:connector-curvature="0"
       d="m 260.1125,560.78718 0,-67.875 m 134.85,67.875 0,-67.875 m 42.225,67.875 0,-67.875 m -87.15,67.875 0,-67.875 m -45,67.875 0,-67.875"
       style="fill:none;stroke:#000000;stroke-width:0.89749998;stroke-linecap:round;stroke-linejoin:round;stroke-miterlimit:10;stroke-opacity:1;stroke-dasharray:none"
       id="path140" />
    <path
       inkscape:connector-curvature="0"
       d="m 237.6125,495.53718 224.775,0 0,-14.025 -224.775,0 0,14.025 z"
       style="fill:#c0c0c0;fill-opacity:1;fill-rule:evenodd;stroke:#000000;stroke-width:0.89749998;stroke-linecap:round;stroke-linejoin:round;stroke-miterlimit:10;stroke-opacity:1;stroke-dasharray:none"
       id="path142" />
  </g>
</svg>
