<?xml version="1.0" encoding="UTF-8" standalone="no"?>
<!-- Created with Inkscape (http://www.inkscape.org/) -->

<svg
   xmlns:dc="http://purl.org/dc/elements/1.1/"
   xmlns:cc="http://creativecommons.org/ns#"
   xmlns:rdf="http://www.w3.org/1999/02/22-rdf-syntax-ns#"
   xmlns:svg="http://www.w3.org/2000/svg"
   xmlns="http://www.w3.org/2000/svg"
   xmlns:sodipodi="http://sodipodi.sourceforge.net/DTD/sodipodi-0.dtd"
   xmlns:inkscape="http://www.inkscape.org/namespaces/inkscape"
   width="192.07437"
   height="78.961723"
   id="svg4417"
   version="1.1"
   inkscape:version="0.48.3.1 r9886"
   sodipodi:docname="Documento nuevo 11">
  <defs
     id="defs4419">
    <clipPath
       clipPathUnits="userSpaceOnUse"
       id="clipPath326">
      <path
         inkscape:connector-curvature="0"
         d="m 537.12,486.92 6,0 0,10.5 -6,0 0,-10.5 z"
         id="path328" />
    </clipPath>
  </defs>
  <sodipodi:namedview
     id="base"
     pagecolor="#ffffff"
     bordercolor="#666666"
     borderopacity="1.0"
     inkscape:pageopacity="0.0"
     inkscape:pageshadow="2"
     inkscape:zoom="0.35"
     inkscape:cx="97.164675"
     inkscape:cy="39.480867"
     inkscape:document-units="px"
     inkscape:current-layer="layer1"
     showgrid="false"
     fit-margin-top="0"
     fit-margin-left="0"
     fit-margin-right="0"
     fit-margin-bottom="0"
     inkscape:window-width="563"
     inkscape:window-height="411"
     inkscape:window-x="800"
     inkscape:window-y="8"
     inkscape:window-maximized="0" />
  <metadata
     id="metadata4422">
    <rdf:RDF>
      <cc:Work
         rdf:about="">
        <dc:format>image/svg+xml</dc:format>
        <dc:type
           rdf:resource="http://purl.org/dc/dcmitype/StillImage" />
        <dc:title></dc:title>
      </cc:Work>
    </rdf:RDF>
  </metadata>
  <g
     inkscape:label="Capa 1"
     inkscape:groupmode="layer"
     id="layer1"
     transform="translate(-252.83533,-492.88133)">
    <path
       inkscape:connector-curvature="0"
       d="m 268.2847,522.79305 2.1,0 1.2,0.6 1.2,1.2 1.2,1.8 0.6,2.4 0,7.425 -0.3,1.8 -0.3,1.2 -0.3,0.6 -0.3,-0.6 -0.3,-1.2 -0.3,-1.8 -0.3,-2.4 0,-2.625 0.3,-2.4 0.6,-2.4 0.9,-1.8 1.2,-1.2 1.2,-0.6 2.1,0 m -1.2,0 2.1,0 1.5,0.6 0.9,1.2 1.2,1.8 0.6,2.4 0,7.425 -0.3,1.8 -0.3,1.2 -0.3,0.6 -0.3,-0.6 -0.3,-1.2 -0.3,-1.8 -0.3,-2.4 0,-2.625 0.3,-2.4 0.6,-2.4 0.9,-1.8 1.2,-1.2 1.2,-0.6 2.4,0 m -1.2,0 2.1,0 1.2,0.6 1.2,1.2 0.9,1.8 0.6,2.4 0.3,2.4 m 0,0 0,2.625 -0.3,2.4 -0.3,1.8 -0.3,1.2 -0.3,0.6 -0.3,-0.6 -0.3,-1.2 -0.3,-1.8 0,-7.425 0.9,-2.4 0.9,-1.8 1.2,-1.2 1.2,-0.6 2.1,0 m -1.2,0 2.1,0 1.2,0.6 1.2,1.2 0.9,1.8 0.6,2.4 0.3,2.4 m 0,0 0,2.625 -0.3,2.4 0,1.8 -0.3,1.2 -0.6,0.6 -0.3,-0.6 -0.3,-1.2 0,-1.8 -0.3,-2.4 0,-2.625 0.3,-2.4 0.6,-2.4 0.9,-1.8 1.2,-1.2 1.2,-0.6 2.1,0 m -1.2,0 2.1,0 1.5,0.6 1.2,1.2 0.9,1.8 0.6,2.4 0.3,2.4 m 0,0 -0.3,2.625 0,2.4 -0.3,1.8 -0.3,1.2 -0.3,0.6 -0.3,-0.6 -0.3,-1.2 -0.3,-1.8 0,-2.4 -0.3,-2.625 0.3,-2.4 0.6,-2.4 0.9,-1.8 1.2,-1.2 1.5,-0.6 2.1,0 m -1.5,0 2.1,0 1.5,0.6 1.2,1.2 0.9,1.8 0.6,2.4 0.3,2.4 m 0,0 -0.3,2.625 0,2.4 -0.3,1.8 -0.3,1.2 -0.3,0.6 -0.3,-0.6 -0.3,-1.2 -0.3,-1.8 0,-7.425 0.6,-2.4 0.9,-1.8 1.2,-1.2 1.5,-0.6 2.1,0"
       style="fill:none;stroke:#000000;stroke-width:0.89874995;stroke-linecap:square;stroke-linejoin:miter;stroke-miterlimit:10;stroke-opacity:1;stroke-dasharray:none"
       id="path304" />
    <path
       inkscape:connector-curvature="0"
       d="m 324.6847,522.79305 2.1,0 1.2,0.6 1.2,1.2 0.9,1.8 0.9,2.4 0,7.425 -0.3,1.8 -0.3,1.2 -0.3,0.6 -0.3,-0.6 -0.3,-1.2 -0.3,-1.8 -0.3,-2.4 0,-2.625 0.3,-2.4 0.6,-2.4 0.9,-1.8 1.2,-1.2 1.2,-0.6 2.1,0 m -1.2,0 2.1,0 1.2,0.6 1.2,1.2 1.2,1.8 0.6,2.4 0,7.425 -0.3,1.8 -0.3,1.2 -0.3,0.6 -0.3,-0.6 -0.3,-1.2 -0.3,-1.8 -0.3,-2.4 0,-2.625 0.3,-2.4 0.6,-2.4 0.9,-1.8 1.2,-1.2 1.2,-0.6 2.1,0 m -2.1,0 2.1,0 1.2,0.6 1.2,1.2 0.9,1.8 0.6,2.4 0.3,2.4 m 0,0 0,2.625 -0.3,2.4 0,1.8 -0.3,1.2 -0.3,0.6 -0.6,-0.6 -0.3,-1.2 0,-1.8 -0.3,-2.4 0,-2.625 0.3,-2.4 0.6,-2.4 0.9,-1.8 1.2,-1.2 1.2,-0.6 2.09999,0 m -1.19999,0 2.09999,0 1.2,0.6 1.2,1.2 0.9,1.8 0.6,2.4 0.3,2.4 m 0,0 0,2.625 -0.3,2.4 0,1.8 -0.3,1.2 -0.3,0.6 -0.6,-0.6 -0.3,-1.2 0,-1.8 -0.3,-2.4 0,-2.625 0.3,-2.4 0.6,-2.4 0.9,-1.8 1.2,-1.2 1.125,-0.6 2.1,0 m -1.2,0 2.4,0 1.2,0.6 1.2,1.2 0.9,1.8 0.6,2.4 0.3,2.4 m 0,0 0,2.625 -0.3,2.4 -0.3,1.8 -0.3,1.2 -0.3,0.6 -0.3,-0.6 -0.3,-1.2 -0.3,-1.8 0,-7.425 0.6,-2.4 0.9,-1.8 1.2,-1.2 1.5,-0.6 2.1,0 m -1.5,0 2.4,0 1.2,0.6 1.2,1.2 0.9,1.8 0.6,2.4 0.3,2.4 m 0,0 0,2.625 -0.3,2.4 -0.3,1.8 -0.3,1.2 -0.3,0.6 -0.3,-0.6 -0.3,-1.2 -0.3,-1.8 0,-7.425 0.6,-2.4 1.2,-1.8 0.9,-1.2 1.5,-0.6 2.1,0"
       style="fill:none;stroke:#000000;stroke-width:0.89874995;stroke-linecap:square;stroke-linejoin:miter;stroke-miterlimit:10;stroke-opacity:1;stroke-dasharray:none"
       id="path306" />
    <path
       inkscape:connector-curvature="0"
       d="m 379.80969,522.79305 2.1,0 1.5,0.6 1.2,1.2 0.9,1.8 0.6,2.4 0,7.425 -0.3,1.8 -0.3,1.2 -0.3,0.6 -0.3,-0.6 -0.3,-1.2 -0.3,-1.8 -0.3,-2.4 0,-2.625 0.3,-2.4 0.6,-2.4 0.9,-1.8 1.2,-1.2 1.2,-0.6 2.4,0 m -1.5,0 2.1,0 1.5,0.6 1.2,1.2 0.9,1.8 0.6,2.4 0,7.425 -0.3,1.8 -0.3,1.2 -0.3,0.6 -0.3,-0.6 -0.3,-1.2 -0.3,-1.8 -0.3,-2.4 0,-2.625 0.3,-2.4 0.6,-2.4 0.9,-1.8 1.2,-1.2 1.5,-0.6 2.1,0 m -1.2,0 2.1,0 1.2,0.6 1.2,1.2 0.9,1.8 0.6,2.4 0.3,2.4 m 0,0 0,2.625 -0.3,2.4 0,1.8 -0.3,1.2 -0.6,0.6 -0.3,-0.6 -0.3,-1.2 0,-1.8 -0.3,-2.4 0,-2.625 0.3,-2.4 0.6,-2.4 0.9,-1.8 1.2,-1.2 1.2,-0.6 2.1,0 m -1.2,0 2.1,0 1.2,0.6 1.2,1.2 0.9,1.8 0.6,2.4 0.3,2.4 m 0,0 0,2.625 -0.3,2.4 0,1.8 -0.3,1.2 -0.3,0.6 -0.6,-0.6 -0.3,-1.2 0,-1.8 -0.3,-2.4 0,-2.625 0.3,-2.4 0.6,-2.4 0.9,-1.8 1.2,-1.2 1.2,-0.6 2.1,0"
       style="fill:none;stroke:#000000;stroke-width:0.89874995;stroke-linecap:square;stroke-linejoin:miter;stroke-miterlimit:10;stroke-opacity:1;stroke-dasharray:none"
       id="path308" />
    <path
       inkscape:connector-curvature="0"
       d="m 253.2847,556.61805 17.1,0 0,-56.25 -17.1,0 0,56.25 z"
       style="fill:#000000;fill-opacity:1;fill-rule:evenodd;stroke:#000000;stroke-width:0.89874995;stroke-linecap:square;stroke-linejoin:miter;stroke-miterlimit:10;stroke-opacity:1;stroke-dasharray:none"
       id="path310" />
    <path
       inkscape:connector-curvature="0"
       d="m 419.40969,528.49305 -0.3,-3.6 -0.6,-3 -1.5,-2.4 -1.5,-1.8 -1.8,-0.3 -1.5,0.3 -1.8,1.8 -1.2,2.4 -0.9,3 0,7.2 0.9,2.925 1.2,2.4 1.8,1.8 1.5,0.6 1.8,-0.6 1.5,-1.8 1.5,-2.4 0.6,-2.925 0.3,-3.6 z"
       style="fill:#000000;fill-opacity:1;fill-rule:evenodd;stroke:#000000;stroke-width:0.89874995;stroke-linecap:square;stroke-linejoin:miter;stroke-miterlimit:10;stroke-opacity:1;stroke-dasharray:none"
       id="path312" />
    <path
       inkscape:connector-curvature="0"
       d="m 275.7847,567.64305 161.92499,0"
       style="fill:none;stroke:#000000;stroke-width:0.89874995;stroke-linecap:square;stroke-linejoin:miter;stroke-miterlimit:10;stroke-opacity:1;stroke-dasharray:none"
       id="path314" />
    <path
       inkscape:connector-curvature="0"
       d="m 436.80969,563.81805 8.1,3.825 -8.1,4.2 0,-8.025"
       style="fill:#000000;fill-opacity:1;fill-rule:evenodd;stroke:none"
       id="path316" />
    <text
       style="font-size:15px"
       y="503.59268"
       x="403.20969"
       id="text318">
      <tspan
         style="font-size:14.96374989px;font-variant:normal;font-weight:normal;writing-mode:lr-tb;fill:#000000;fill-opacity:1;fill-rule:nonzero;stroke:none;font-family:Arial Black;-inkscape-font-specification:Arial"
         x="403.20969"
         y="503.59268"
         id="tspan320">M</tspan>
    </text>
  </g>
</svg>
