<?xml version="1.0" encoding="UTF-8" standalone="no"?>
<!-- Created with Inkscape (http://www.inkscape.org/) -->

<svg
   xmlns:dc="http://purl.org/dc/elements/1.1/"
   xmlns:cc="http://creativecommons.org/ns#"
   xmlns:rdf="http://www.w3.org/1999/02/22-rdf-syntax-ns#"
   xmlns:svg="http://www.w3.org/2000/svg"
   xmlns="http://www.w3.org/2000/svg"
   xmlns:sodipodi="http://sodipodi.sourceforge.net/DTD/sodipodi-0.dtd"
   xmlns:inkscape="http://www.inkscape.org/namespaces/inkscape"
   width="225.6725"
   height="102.5975"
   id="svg5406"
   version="1.1"
   inkscape:version="0.48.3.1 r9886"
   sodipodi:docname="Documento nuevo 23">
  <defs
     id="defs5408">
    <clipPath
       clipPathUnits="userSpaceOnUse"
       id="clipPath866">
      <path
         inkscape:connector-curvature="0"
         d="m 355.8,43.1 17.7,0 0,21.54 -17.7,0 0,-21.54 z"
         id="path868" />
    </clipPath>
    <clipPath
       clipPathUnits="userSpaceOnUse"
       id="clipPath854">
      <path
         inkscape:connector-curvature="0"
         d="m 348.36,43.1 17.7,0 0,21.54 -17.7,0 0,-21.54 z"
         id="path856" />
    </clipPath>
    <clipPath
       clipPathUnits="userSpaceOnUse"
       id="clipPath842">
      <path
         inkscape:connector-curvature="0"
         d="m 340.68,43.1 17.94,0 0,21.54 -17.94,0 0,-21.54 z"
         id="path844" />
    </clipPath>
    <clipPath
       clipPathUnits="userSpaceOnUse"
       id="clipPath830">
      <path
         inkscape:connector-curvature="0"
         d="m 333.3,43.1 17.94,0 0,21.54 -17.94,0 0,-21.54 z"
         id="path832" />
    </clipPath>
    <clipPath
       clipPathUnits="userSpaceOnUse"
       id="clipPath818">
      <path
         inkscape:connector-curvature="0"
         d="m 463.68,43.1 17.94,0 0,21.54 -17.94,0 0,-21.54 z"
         id="path820" />
    </clipPath>
    <clipPath
       clipPathUnits="userSpaceOnUse"
       id="clipPath806">
      <path
         inkscape:connector-curvature="0"
         d="m 456.3,43.1 17.94,0 0,21.54 -17.94,0 0,-21.54 z"
         id="path808" />
    </clipPath>
    <clipPath
       clipPathUnits="userSpaceOnUse"
       id="clipPath794">
      <path
         inkscape:connector-curvature="0"
         d="m 448.86,43.1 17.7,0 0,21.54 -17.7,0 0,-21.54 z"
         id="path796" />
    </clipPath>
    <clipPath
       clipPathUnits="userSpaceOnUse"
       id="clipPath782">
      <path
         inkscape:connector-curvature="0"
         d="m 441.42,43.1 17.7,0 0,21.54 -17.7,0 0,-21.54 z"
         id="path784" />
    </clipPath>
    <clipPath
       clipPathUnits="userSpaceOnUse"
       id="clipPath770">
      <path
         inkscape:connector-curvature="0"
         d="m 428.22,43.1 17.7,0 0,21.54 -17.7,0 0,-21.54 z"
         id="path772" />
    </clipPath>
    <clipPath
       clipPathUnits="userSpaceOnUse"
       id="clipPath758">
      <path
         inkscape:connector-curvature="0"
         d="m 420.78,43.1 17.7,0 0,21.54 -17.7,0 0,-21.54 z"
         id="path760" />
    </clipPath>
    <clipPath
       clipPathUnits="userSpaceOnUse"
       id="clipPath746">
      <path
         inkscape:connector-curvature="0"
         d="m 413.1,43.1 17.94,0 0,21.54 -17.94,0 0,-21.54 z"
         id="path748" />
    </clipPath>
    <clipPath
       clipPathUnits="userSpaceOnUse"
       id="clipPath734">
      <path
         inkscape:connector-curvature="0"
         d="m 405.66,43.1 17.94,0 0,21.54 -17.94,0 0,-21.54 z"
         id="path736" />
    </clipPath>
    <clipPath
       clipPathUnits="userSpaceOnUse"
       id="clipPath722">
      <path
         inkscape:connector-curvature="0"
         d="m 391.56,43.1 17.7,0 0,21.54 -17.7,0 0,-21.54 z"
         id="path724" />
    </clipPath>
    <clipPath
       clipPathUnits="userSpaceOnUse"
       id="clipPath710">
      <path
         inkscape:connector-curvature="0"
         d="m 384.12,43.1 17.7,0 0,21.54 -17.7,0 0,-21.54 z"
         id="path712" />
    </clipPath>
    <clipPath
       clipPathUnits="userSpaceOnUse"
       id="clipPath698">
      <path
         inkscape:connector-curvature="0"
         d="m 376.68,43.1 17.7,0 0,21.54 -17.7,0 0,-21.54 z"
         id="path700" />
    </clipPath>
    <clipPath
       clipPathUnits="userSpaceOnUse"
       id="clipPath686">
      <path
         inkscape:connector-curvature="0"
         d="m 369.24,43.1 17.7,0 0,21.54 -17.7,0 0,-21.54 z"
         id="path688" />
    </clipPath>
  </defs>
  <sodipodi:namedview
     id="base"
     pagecolor="#ffffff"
     bordercolor="#666666"
     borderopacity="1.0"
     inkscape:pageopacity="0.0"
     inkscape:pageshadow="2"
     inkscape:zoom="0.35"
     inkscape:cx="112.83625"
     inkscape:cy="51.298747"
     inkscape:document-units="px"
     inkscape:current-layer="layer1"
     showgrid="false"
     fit-margin-top="0"
     fit-margin-left="0"
     fit-margin-right="0"
     fit-margin-bottom="0"
     inkscape:window-width="563"
     inkscape:window-height="411"
     inkscape:window-x="800"
     inkscape:window-y="8"
     inkscape:window-maximized="0" />
  <metadata
     id="metadata5411">
    <rdf:RDF>
      <cc:Work
         rdf:about="">
        <dc:format>image/svg+xml</dc:format>
        <dc:type
           rdf:resource="http://purl.org/dc/dcmitype/StillImage" />
        <dc:title></dc:title>
      </cc:Work>
    </rdf:RDF>
  </metadata>
  <g
     inkscape:label="Capa 1"
     inkscape:groupmode="layer"
     id="layer1"
     transform="translate(-237.16375,-481.06343)">
    <path
       inkscape:connector-curvature="0"
       d="m 307.7375,566.48718 2.1,0 1.5,0.3 1.2,1.2 0.9,1.8 0.6,2.4 0.3,2.625"
       style="fill:none;stroke:#000000;stroke-width:0.89749998;stroke-linecap:square;stroke-linejoin:miter;stroke-miterlimit:10;stroke-opacity:1;stroke-dasharray:none"
       id="path680" />
    <g
       transform="matrix(1.25,0,0,-1.25,-157.1875,639.48718)"
       id="g682">
      <g
         id="g684"
         clip-path="url(#clipPath686)">
        <path
           inkscape:connector-curvature="0"
           d="m 377.22,51.74 -0.24,-1.92 0,-1.92 -0.24,-1.68 -0.24,-0.96 -0.24,-0.24 -0.24,0.24 -0.24,0.96 -0.24,1.68 0,5.94 0.48,1.92 0.72,1.44 0.96,0.96 1.2,0.24 1.68,0"
           style="fill:none;stroke:#000000;stroke-width:0.71799999;stroke-linecap:square;stroke-linejoin:miter;stroke-miterlimit:10;stroke-opacity:1;stroke-dasharray:none"
           id="path690" />
      </g>
    </g>
    <path
       inkscape:connector-curvature="0"
       d="m 317.0375,566.48718 2.1,0 1.5,0.3 1.2,1.2 0.9,1.8 0.6,2.4 0.3,2.625"
       style="fill:none;stroke:#000000;stroke-width:0.89749998;stroke-linecap:square;stroke-linejoin:miter;stroke-miterlimit:10;stroke-opacity:1;stroke-dasharray:none"
       id="path692" />
    <g
       transform="matrix(1.25,0,0,-1.25,-157.1875,639.48718)"
       id="g694">
      <g
         id="g696"
         clip-path="url(#clipPath698)">
        <path
           inkscape:connector-curvature="0"
           d="m 384.66,51.74 -0.24,-1.92 0,-1.92 -0.24,-1.68 -0.24,-0.96 -0.24,-0.24 -0.24,0.24 -0.24,0.96 -0.24,1.68 0,5.94 0.48,1.92 0.72,1.44 0.96,0.96 1.2,0.24 1.68,0"
           style="fill:none;stroke:#000000;stroke-width:0.71799999;stroke-linecap:square;stroke-linejoin:miter;stroke-miterlimit:10;stroke-opacity:1;stroke-dasharray:none"
           id="path702" />
      </g>
    </g>
    <path
       inkscape:connector-curvature="0"
       d="m 326.6375,566.48718 2.1,0 1.2,0.3 1.2,1.2 1.2,1.8 0.6,2.4 0,2.625"
       style="fill:none;stroke:#000000;stroke-width:0.89749998;stroke-linecap:square;stroke-linejoin:miter;stroke-miterlimit:10;stroke-opacity:1;stroke-dasharray:none"
       id="path704" />
    <g
       transform="matrix(1.25,0,0,-1.25,-157.1875,639.48718)"
       id="g706">
      <g
         id="g708"
         clip-path="url(#clipPath710)">
        <path
           inkscape:connector-curvature="0"
           d="m 392.1,51.74 0,-3.84 -0.24,-1.68 -0.24,-0.96 -0.24,-0.24 -0.24,0.24 -0.24,0.96 -0.24,1.68 -0.24,1.92 0,1.92 0.24,2.1 0.48,1.92 0.72,1.44 0.96,0.96 0.96,0.24 1.68,0"
           style="fill:none;stroke:#000000;stroke-width:0.71799999;stroke-linecap:square;stroke-linejoin:miter;stroke-miterlimit:10;stroke-opacity:1;stroke-dasharray:none"
           id="path714" />
      </g>
    </g>
    <path
       inkscape:connector-curvature="0"
       d="m 335.9375,566.48718 2.1,0 1.2,0.3 1.2,1.2 1.2,1.8 0.6,2.4 0,2.625"
       style="fill:none;stroke:#000000;stroke-width:0.89749998;stroke-linecap:square;stroke-linejoin:miter;stroke-miterlimit:10;stroke-opacity:1;stroke-dasharray:none"
       id="path716" />
    <g
       transform="matrix(1.25,0,0,-1.25,-157.1875,639.48718)"
       id="g718">
      <g
         id="g720"
         clip-path="url(#clipPath722)">
        <path
           inkscape:connector-curvature="0"
           d="m 399.54,51.74 0,-3.84 -0.24,-1.68 -0.24,-0.96 -0.24,-0.24 -0.24,0.24 -0.24,0.96 -0.24,1.68 -0.24,1.92 0,1.92 0.24,2.1 0.48,1.92 0.72,1.44 0.96,0.96 0.96,0.24 1.68,0"
           style="fill:none;stroke:#000000;stroke-width:0.71799999;stroke-linecap:square;stroke-linejoin:miter;stroke-miterlimit:10;stroke-opacity:1;stroke-dasharray:none"
           id="path726" />
      </g>
    </g>
    <path
       inkscape:connector-curvature="0"
       d="m 353.5625,566.48718 2.1,0 1.5,0.3 1.2,1.2 0.9,1.8 0.6,2.4 0,2.625"
       style="fill:none;stroke:#000000;stroke-width:0.89749998;stroke-linecap:square;stroke-linejoin:miter;stroke-miterlimit:10;stroke-opacity:1;stroke-dasharray:none"
       id="path728" />
    <g
       transform="matrix(1.25,0,0,-1.25,-157.1875,639.48718)"
       id="g730">
      <g
         id="g732"
         clip-path="url(#clipPath734)">
        <path
           inkscape:connector-curvature="0"
           d="m 413.64,51.74 0,-3.84 -0.24,-1.68 -0.24,-0.96 -0.24,-0.24 -0.24,0.24 -0.24,0.96 -0.24,1.68 -0.24,1.92 0,1.92 0.24,2.1 0.48,1.92 0.72,1.44 0.96,0.96 0.96,0.24 1.92,0"
           style="fill:none;stroke:#000000;stroke-width:0.71799999;stroke-linecap:square;stroke-linejoin:miter;stroke-miterlimit:10;stroke-opacity:1;stroke-dasharray:none"
           id="path738" />
      </g>
    </g>
    <path
       inkscape:connector-curvature="0"
       d="m 362.8625,566.48718 2.1,0 1.5,0.3 1.2,1.2 0.9,1.8 0.6,2.4 0,2.625"
       style="fill:none;stroke:#000000;stroke-width:0.89749998;stroke-linecap:square;stroke-linejoin:miter;stroke-miterlimit:10;stroke-opacity:1;stroke-dasharray:none"
       id="path740" />
    <g
       transform="matrix(1.25,0,0,-1.25,-157.1875,639.48718)"
       id="g742">
      <g
         id="g744"
         clip-path="url(#clipPath746)">
        <path
           inkscape:connector-curvature="0"
           d="m 421.08,51.74 0,-3.84 -0.24,-1.68 -0.24,-0.96 -0.24,-0.24 -0.24,0.24 -0.24,0.96 -0.24,1.68 0,1.92 -0.24,1.92 0.24,2.1 0.48,1.92 0.72,1.44 0.96,0.96 1.2,0.24 1.68,0"
           style="fill:none;stroke:#000000;stroke-width:0.71799999;stroke-linecap:square;stroke-linejoin:miter;stroke-miterlimit:10;stroke-opacity:1;stroke-dasharray:none"
           id="path750" />
      </g>
    </g>
    <path
       inkscape:connector-curvature="0"
       d="m 372.4625,566.48718 2.1,0 1.2,0.3 1.2,1.2 0.9,1.8 0.6,2.4 0.3,2.625"
       style="fill:none;stroke:#000000;stroke-width:0.89749998;stroke-linecap:square;stroke-linejoin:miter;stroke-miterlimit:10;stroke-opacity:1;stroke-dasharray:none"
       id="path752" />
    <g
       transform="matrix(1.25,0,0,-1.25,-157.1875,639.48718)"
       id="g754">
      <g
         id="g756"
         clip-path="url(#clipPath758)">
        <path
           inkscape:connector-curvature="0"
           d="m 428.76,51.74 0,-1.92 -0.24,-1.92 0,-1.68 -0.24,-0.96 -0.48,-0.24 -0.24,0.24 -0.24,0.96 0,1.68 -0.24,1.92 0,1.92 0.24,2.1 0.48,1.92 0.72,1.44 0.96,0.96 0.96,0.24 1.68,0"
           style="fill:none;stroke:#000000;stroke-width:0.71799999;stroke-linecap:square;stroke-linejoin:miter;stroke-miterlimit:10;stroke-opacity:1;stroke-dasharray:none"
           id="path762" />
      </g>
    </g>
    <path
       inkscape:connector-curvature="0"
       d="m 381.7625,566.48718 2.1,0 1.2,0.3 1.2,1.2 0.9,1.8 0.6,2.4 0.3,2.625"
       style="fill:none;stroke:#000000;stroke-width:0.89749998;stroke-linecap:square;stroke-linejoin:miter;stroke-miterlimit:10;stroke-opacity:1;stroke-dasharray:none"
       id="path764" />
    <g
       transform="matrix(1.25,0,0,-1.25,-157.1875,639.48718)"
       id="g766">
      <g
         id="g768"
         clip-path="url(#clipPath770)">
        <path
           inkscape:connector-curvature="0"
           d="m 436.2,51.74 0,-1.92 -0.24,-1.92 0,-1.68 -0.24,-0.96 -0.48,-0.24 -0.24,0.24 -0.24,0.96 0,1.68 -0.24,1.92 0,1.92 0.24,2.1 0.48,1.92 0.72,1.44 0.96,0.96 0.96,0.24 1.68,0"
           style="fill:none;stroke:#000000;stroke-width:0.71799999;stroke-linecap:square;stroke-linejoin:miter;stroke-miterlimit:10;stroke-opacity:1;stroke-dasharray:none"
           id="path774" />
      </g>
    </g>
    <path
       inkscape:connector-curvature="0"
       d="m 398.2625,566.48718 2.1,0 1.2,0.3 1.2,1.2 0.9,1.8 0.6,2.4 0.3,2.625"
       style="fill:none;stroke:#000000;stroke-width:0.89749998;stroke-linecap:square;stroke-linejoin:miter;stroke-miterlimit:10;stroke-opacity:1;stroke-dasharray:none"
       id="path776" />
    <g
       transform="matrix(1.25,0,0,-1.25,-157.1875,639.48718)"
       id="g778">
      <g
         id="g780"
         clip-path="url(#clipPath782)">
        <path
           inkscape:connector-curvature="0"
           d="m 449.4,51.74 0,-1.92 -0.24,-1.92 -0.24,-1.68 -0.24,-0.96 -0.24,-0.24 -0.24,0.24 -0.24,0.96 -0.24,1.68 0,5.94 0.72,1.92 0.72,1.44 0.96,0.96 0.96,0.24 1.68,0"
           style="fill:none;stroke:#000000;stroke-width:0.71799999;stroke-linecap:square;stroke-linejoin:miter;stroke-miterlimit:10;stroke-opacity:1;stroke-dasharray:none"
           id="path786" />
      </g>
    </g>
    <path
       inkscape:connector-curvature="0"
       d="m 407.5625,566.48718 2.1,0 1.2,0.3 1.2,1.2 0.9,1.8 0.6,2.4 0.3,2.625"
       style="fill:none;stroke:#000000;stroke-width:0.89749998;stroke-linecap:square;stroke-linejoin:miter;stroke-miterlimit:10;stroke-opacity:1;stroke-dasharray:none"
       id="path788" />
    <g
       transform="matrix(1.25,0,0,-1.25,-157.1875,639.48718)"
       id="g790">
      <g
         id="g792"
         clip-path="url(#clipPath794)">
        <path
           inkscape:connector-curvature="0"
           d="m 456.84,51.74 0,-1.92 -0.24,-1.92 -0.24,-1.68 -0.24,-0.96 -0.24,-0.24 -0.24,0.24 -0.24,0.96 0,1.68 -0.24,1.92 0,1.92 0.24,2.1 0.48,1.92 0.72,1.44 0.96,0.96 0.96,0.24 1.68,0"
           style="fill:none;stroke:#000000;stroke-width:0.71799999;stroke-linecap:square;stroke-linejoin:miter;stroke-miterlimit:10;stroke-opacity:1;stroke-dasharray:none"
           id="path798" />
      </g>
    </g>
    <path
       inkscape:connector-curvature="0"
       d="m 416.8625,566.48718 2.1,0 1.5,0.3 1.2,1.2 0.9,1.8 0.6,2.4 0.3,2.625"
       style="fill:none;stroke:#000000;stroke-width:0.89749998;stroke-linecap:square;stroke-linejoin:miter;stroke-miterlimit:10;stroke-opacity:1;stroke-dasharray:none"
       id="path800" />
    <g
       transform="matrix(1.25,0,0,-1.25,-157.1875,639.48718)"
       id="g802">
      <g
         id="g804"
         clip-path="url(#clipPath806)">
        <path
           inkscape:connector-curvature="0"
           d="m 464.52,51.74 -0.24,-1.92 0,-1.92 -0.24,-1.68 -0.24,-0.96 -0.24,-0.24 -0.24,0.24 -0.24,0.96 -0.24,1.68 0,1.92 -0.24,1.92 0.24,2.1 0.48,1.92 0.72,1.44 0.96,0.96 1.2,0.24 1.68,0"
           style="fill:none;stroke:#000000;stroke-width:0.71799999;stroke-linecap:square;stroke-linejoin:miter;stroke-miterlimit:10;stroke-opacity:1;stroke-dasharray:none"
           id="path810" />
      </g>
    </g>
    <path
       inkscape:connector-curvature="0"
       d="m 426.1625,566.48718 2.1,0 1.425,0.3 1.2,1.2 0.9,1.8 0.6,2.4 0.3,2.625"
       style="fill:none;stroke:#000000;stroke-width:0.89749998;stroke-linecap:square;stroke-linejoin:miter;stroke-miterlimit:10;stroke-opacity:1;stroke-dasharray:none"
       id="path812" />
    <g
       transform="matrix(1.25,0,0,-1.25,-157.1875,639.48718)"
       id="g814">
      <g
         id="g816"
         clip-path="url(#clipPath818)">
        <path
           inkscape:connector-curvature="0"
           d="m 471.9,51.74 -0.24,-1.92 0,-1.92 -0.24,-1.68 -0.24,-0.96 -0.24,-0.24 -0.24,0.24 -0.24,0.96 -0.24,1.68 0,1.92 -0.24,1.92 0.24,2.1 0.48,1.92 0.72,1.44 0.96,0.96 1.2,0.24 1.68,0"
           style="fill:none;stroke:#000000;stroke-width:0.71799999;stroke-linecap:square;stroke-linejoin:miter;stroke-miterlimit:10;stroke-opacity:1;stroke-dasharray:none"
           id="path822" />
      </g>
    </g>
    <path
       inkscape:connector-curvature="0"
       d="m 263.1125,566.48718 2.1,0 1.5,0.3 1.2,1.2 0.9,1.8 0.6,2.4 0.3,2.625"
       style="fill:none;stroke:#000000;stroke-width:0.89749998;stroke-linecap:square;stroke-linejoin:miter;stroke-miterlimit:10;stroke-opacity:1;stroke-dasharray:none"
       id="path824" />
    <g
       transform="matrix(1.25,0,0,-1.25,-157.1875,639.48718)"
       id="g826">
      <g
         id="g828"
         clip-path="url(#clipPath830)">
        <path
           inkscape:connector-curvature="0"
           d="m 341.52,51.74 -0.24,-1.92 0,-1.92 -0.24,-1.68 -0.24,-0.96 -0.24,-0.24 -0.24,0.24 -0.24,0.96 -0.24,1.68 0,1.92 -0.24,1.92 0.24,2.1 0.48,1.92 0.72,1.44 0.96,0.96 1.2,0.24 1.68,0"
           style="fill:none;stroke:#000000;stroke-width:0.71799999;stroke-linecap:square;stroke-linejoin:miter;stroke-miterlimit:10;stroke-opacity:1;stroke-dasharray:none"
           id="path834" />
      </g>
    </g>
    <path
       inkscape:connector-curvature="0"
       d="m 272.4125,566.48718 2.1,0 1.425,0.3 1.2,1.2 0.9,1.8 0.6,2.4 0.3,2.625"
       style="fill:none;stroke:#000000;stroke-width:0.89749998;stroke-linecap:square;stroke-linejoin:miter;stroke-miterlimit:10;stroke-opacity:1;stroke-dasharray:none"
       id="path836" />
    <g
       transform="matrix(1.25,0,0,-1.25,-157.1875,639.48718)"
       id="g838">
      <g
         id="g840"
         clip-path="url(#clipPath842)">
        <path
           inkscape:connector-curvature="0"
           d="m 348.9,51.74 -0.24,-1.92 0,-1.92 -0.24,-1.68 -0.24,-0.96 -0.24,-0.24 -0.24,0.24 -0.24,0.96 -0.24,1.68 0,1.92 -0.24,1.92 0.24,2.1 0.48,1.92 0.72,1.44 0.96,0.96 1.2,0.24 1.68,0"
           style="fill:none;stroke:#000000;stroke-width:0.71799999;stroke-linecap:square;stroke-linejoin:miter;stroke-miterlimit:10;stroke-opacity:1;stroke-dasharray:none"
           id="path846" />
      </g>
    </g>
    <path
       inkscape:connector-curvature="0"
       d="m 281.9375,566.48718 2.1,0 1.2,0.3 1.2,1.2 0.9,1.8 0.6,2.4 0.3,2.625"
       style="fill:none;stroke:#000000;stroke-width:0.89749998;stroke-linecap:square;stroke-linejoin:miter;stroke-miterlimit:10;stroke-opacity:1;stroke-dasharray:none"
       id="path848" />
    <g
       transform="matrix(1.25,0,0,-1.25,-157.1875,639.48718)"
       id="g850">
      <g
         id="g852"
         clip-path="url(#clipPath854)">
        <path
           inkscape:connector-curvature="0"
           d="m 356.34,51.74 0,-1.92 -0.24,-1.92 0,-1.68 -0.24,-0.96 -0.24,-0.24 -0.24,0.24 -0.24,0.96 -0.24,1.68 -0.24,1.92 0,1.92 0.24,2.1 0.48,1.92 0.72,1.44 0.96,0.96 0.96,0.24 1.68,0"
           style="fill:none;stroke:#000000;stroke-width:0.71799999;stroke-linecap:square;stroke-linejoin:miter;stroke-miterlimit:10;stroke-opacity:1;stroke-dasharray:none"
           id="path858" />
      </g>
    </g>
    <path
       inkscape:connector-curvature="0"
       d="m 291.2375,566.48718 2.1,0 1.2,0.3 1.2,1.2 0.9,1.8 0.9,2.4 0,2.625"
       style="fill:none;stroke:#000000;stroke-width:0.89749998;stroke-linecap:square;stroke-linejoin:miter;stroke-miterlimit:10;stroke-opacity:1;stroke-dasharray:none"
       id="path860" />
    <g
       transform="matrix(1.25,0,0,-1.25,-157.1875,639.48718)"
       id="g862">
      <g
         id="g864"
         clip-path="url(#clipPath866)">
        <path
           inkscape:connector-curvature="0"
           d="m 363.78,51.74 0,-3.84 -0.24,-1.68 -0.24,-0.96 -0.24,-0.24 -0.24,0.24 -0.24,0.96 -0.24,1.68 -0.24,1.92 0,1.92 0.24,2.1 0.48,1.92 0.72,1.44 0.96,0.96 0.96,0.24 1.68,0"
           style="fill:none;stroke:#000000;stroke-width:0.71799999;stroke-linecap:square;stroke-linejoin:miter;stroke-miterlimit:10;stroke-opacity:1;stroke-dasharray:none"
           id="path870" />
      </g>
    </g>
    <path
       inkscape:connector-curvature="0"
       d="m 302.0375,583.21218 5.7,0 0,-22.425 -5.7,0 0,22.425 z"
       style="fill:#000000;fill-opacity:1;fill-rule:evenodd;stroke:#000000;stroke-width:0.89749998;stroke-linecap:square;stroke-linejoin:miter;stroke-miterlimit:10;stroke-opacity:1;stroke-dasharray:none"
       id="path872" />
    <path
       inkscape:connector-curvature="0"
       d="m 347.3375,583.21218 5.325,0 0,-22.425 -5.325,0 0,22.425 z"
       style="fill:#000000;fill-opacity:1;fill-rule:evenodd;stroke:#000000;stroke-width:0.89749998;stroke-linecap:square;stroke-linejoin:miter;stroke-miterlimit:10;stroke-opacity:1;stroke-dasharray:none"
       id="path874" />
    <path
       inkscape:connector-curvature="0"
       d="m 392.2625,583.21218 5.7,0 0,-22.425 -5.7,0 0,22.425 z"
       style="fill:#000000;fill-opacity:1;fill-rule:evenodd;stroke:#000000;stroke-width:0.89749998;stroke-linecap:square;stroke-linejoin:miter;stroke-miterlimit:10;stroke-opacity:1;stroke-dasharray:none"
       id="path876" />
    <path
       inkscape:connector-curvature="0"
       d="m 434.1875,583.21218 5.7,0 0,-22.425 -5.7,0 0,22.425 z"
       style="fill:#000000;fill-opacity:1;fill-rule:evenodd;stroke:#000000;stroke-width:0.89749998;stroke-linecap:square;stroke-linejoin:miter;stroke-miterlimit:10;stroke-opacity:1;stroke-dasharray:none"
       id="path878" />
    <path
       inkscape:connector-curvature="0"
       d="m 257.1125,583.21218 5.7,0 0,-22.425 -5.7,0 0,22.425 z"
       style="fill:#000000;fill-opacity:1;fill-rule:evenodd;stroke:#000000;stroke-width:0.89749998;stroke-linecap:square;stroke-linejoin:miter;stroke-miterlimit:10;stroke-opacity:1;stroke-dasharray:none"
       id="path880" />
    <text
       style="font-size:15px"
       y="553.88684"
       x="388.0625"
       id="text882">
      <tspan
         style="font-size:14.9574995px;font-variant:normal;font-weight:normal;writing-mode:lr-tb;fill:#000000;fill-opacity:1;fill-rule:nonzero;stroke:none;font-family:Arial Black;-inkscape-font-specification:Arial"
         x="388.0625"
         y="553.88684"
         id="tspan884">m</tspan>
    </text>
    <path
       inkscape:connector-curvature="0"
       d="m 260.1125,560.78718 0,-67.875 m 134.85,67.875 0,-67.875 m 42.225,67.875 0,-67.875 m -87.15,67.875 0,-67.875 m -45,67.875 0,-67.875"
       style="fill:none;stroke:#000000;stroke-width:0.89749998;stroke-linecap:square;stroke-linejoin:miter;stroke-miterlimit:10;stroke-opacity:1;stroke-dasharray:none"
       id="path886" />
    <path
       inkscape:connector-curvature="0"
       d="m 237.6125,495.53718 224.775,0 0,-14.025 -224.775,0 0,14.025 z"
       style="fill:#c0c0c0;fill-opacity:1;fill-rule:evenodd;stroke:#000000;stroke-width:0.89749998;stroke-linecap:square;stroke-linejoin:miter;stroke-miterlimit:10;stroke-opacity:1;stroke-dasharray:none"
       id="path888" />
  </g>
</svg>
