<?xml version="1.0" encoding="UTF-8" standalone="no"?>
<!-- Created with Inkscape (http://www.inkscape.org/) -->

<svg
   xmlns:dc="http://purl.org/dc/elements/1.1/"
   xmlns:cc="http://creativecommons.org/ns#"
   xmlns:rdf="http://www.w3.org/1999/02/22-rdf-syntax-ns#"
   xmlns:svg="http://www.w3.org/2000/svg"
   xmlns="http://www.w3.org/2000/svg"
   xmlns:sodipodi="http://sodipodi.sourceforge.net/DTD/sodipodi-0.dtd"
   xmlns:inkscape="http://www.inkscape.org/namespaces/inkscape"
   width="328.42249"
   height="60.448711"
   id="svg4253"
   version="1.1"
   inkscape:version="0.48.3.1 r9886"
   sodipodi:docname="Documento nuevo 7">
  <defs
     id="defs4255">
    <clipPath
       clipPathUnits="userSpaceOnUse"
       id="clipPath402">
      <path
         inkscape:connector-curvature="0"
         d="m 303.12,459.92 6,0 0,10.5 -6,0 0,-10.5 z"
         id="path404" />
    </clipPath>
    <clipPath
       clipPathUnits="userSpaceOnUse"
       id="clipPath384">
      <path
         inkscape:connector-curvature="0"
         d="m 212.64,495.74 12.66,0 0,13.92 -12.66,0 0,-13.92 z"
         id="path386" />
    </clipPath>
    <clipPath
       clipPathUnits="userSpaceOnUse"
       id="clipPath372">
      <path
         inkscape:connector-curvature="0"
         d="m 187.98,495.74 12.66,0 0,13.92 -12.66,0 0,-13.92 z"
         id="path374" />
    </clipPath>
    <clipPath
       clipPathUnits="userSpaceOnUse"
       id="clipPath354">
      <path
         inkscape:connector-curvature="0"
         d="m 70.92,476.84 13.08,0 0,19.2 -13.08,0 0,-19.2 z"
         id="path356" />
    </clipPath>
    <clipPath
       clipPathUnits="userSpaceOnUse"
       id="clipPath344">
      <path
         inkscape:connector-curvature="0"
         d="m 323.28,470.12 13.26,0 0,25.92 -13.26,0 0,-25.92 z"
         id="path346" />
    </clipPath>
  </defs>
  <sodipodi:namedview
     id="base"
     pagecolor="#ffffff"
     bordercolor="#666666"
     borderopacity="1.0"
     inkscape:pageopacity="0.0"
     inkscape:pageshadow="2"
     inkscape:zoom="0.35"
     inkscape:cx="164.21125"
     inkscape:cy="30.224377"
     inkscape:document-units="px"
     inkscape:current-layer="layer1"
     showgrid="false"
     fit-margin-top="0"
     fit-margin-left="0"
     fit-margin-right="0"
     fit-margin-bottom="0"
     inkscape:window-width="563"
     inkscape:window-height="411"
     inkscape:window-x="800"
     inkscape:window-y="8"
     inkscape:window-maximized="0" />
  <metadata
     id="metadata4258">
    <rdf:RDF>
      <cc:Work
         rdf:about="">
        <dc:format>image/svg+xml</dc:format>
        <dc:type
           rdf:resource="http://purl.org/dc/dcmitype/StillImage" />
        <dc:title></dc:title>
      </cc:Work>
    </rdf:RDF>
  </metadata>
  <g
     inkscape:label="Capa 1"
     inkscape:groupmode="layer"
     id="layer1"
     transform="translate(-185.78875,-502.13785)">
    <path
       inkscape:connector-curvature="0"
       d="m 363.4625,525.01156 2.1,0 1.2,0.3 1.2,1.2 1.2,1.725 0.6,2.4 0,7.5 -0.3,2.1 -0.3,1.2 -0.3,0.3 -0.3,-0.3 -0.3,-1.2 -0.3,-2.1 -0.3,-2.4 0,-2.4 0.3,-2.7 0.6,-2.4 0.9,-1.725 1.2,-1.2 1.2,-0.3 2.1,0 m -1.2,0 2.1,0 1.5,0.3 0.9,1.2 1.2,1.725 0.6,2.4 0,7.5 -0.3,2.1 -0.3,1.2 -0.3,0.3 -0.3,-0.3 -0.3,-1.2 -0.3,-2.1 -0.3,-2.4 0,-2.4 0.3,-2.7 0.6,-2.4 0.9,-1.725 1.2,-1.2 1.2,-0.3 2.4,0 m -1.2,0 2.1,0 1.2,0.3 1.2,1.2 0.9,1.725 0.6,2.4 0.3,2.7 m 0,0 0,2.4 -0.3,2.4 -0.3,2.1 -0.3,1.2 -0.3,0.3 -0.3,-0.3 -0.3,-1.2 -0.3,-2.1 0,-7.5 0.6,-2.4 1.2,-1.725 1.2,-1.2 1.2,-0.3 2.1,0 m -1.2,0 2.1,0 1.2,0.3 1.2,1.2 0.9,1.725 0.6,2.4 0.3,2.7 m 0,0 0,2.4 -0.3,2.4 -0.3,2.1 -0.3,1.2 -0.3,0.3 -0.3,-0.3 -0.3,-1.2 -0.3,-2.1 0,-4.8 0.3,-2.7 0.6,-2.4 0.9,-1.725 1.2,-1.2 1.2,-0.3 2.1,0 m -1.2,0 2.1,0 1.5,0.3 1.2,1.2 0.9,1.725 0.6,2.4 0,7.5 -0.3,2.1 -0.3,1.2 -0.3,0.3 -0.3,-0.3 -0.3,-1.2 -0.3,-2.1 0,-2.4 -0.3,-2.4 0.3,-2.7 0.6,-2.4 0.9,-1.725 1.2,-1.2 1.5,-0.3 2.1,0 m -1.5,0 2.1,0 1.5,0.3 1.2,1.2 0.9,1.725 0.6,2.4 0,7.5 -0.3,2.1 -0.3,1.2 -0.3,0.3 -0.3,-0.3 -0.3,-1.2 -0.3,-2.1 0,-2.4 -0.3,-2.4 0.3,-2.7 0.6,-2.4 0.9,-1.725 1.2,-1.2 1.5,-0.3 2.1,0"
       style="fill:none;stroke:#000000;stroke-width:0.89749998;stroke-linecap:square;stroke-linejoin:miter;stroke-miterlimit:10;stroke-opacity:1;stroke-dasharray:none"
       id="path334" />
    <path
       inkscape:connector-curvature="0"
       d="m 419.8625,525.01156 2.1,0 1.2,0.3 1.2,1.2 0.9,1.725 0.6,2.4 0.3,2.7 m 0,0 0,2.4 -0.3,2.4 0,2.1 -0.3,1.2 -0.3,0.3 -0.6,-0.3 -0.3,-1.2 0,-2.1 -0.3,-2.4 0,-2.4 0.3,-2.7 0.6,-2.4 0.9,-1.725 1.2,-1.2 1.2,-0.3 2.1,0 m -1.2,0 2.1,0 1.2,0.3 1.2,1.2 0.9,1.725 0.6,2.4 0.3,2.7 m 0,0 0,2.4 -0.3,2.4 0,2.1 -0.3,1.2 -0.3,0.3 -0.6,-0.3 -0.3,-1.2 0,-2.1 -0.3,-2.4 0,-2.4 0.3,-2.7 0.6,-2.4 0.9,-1.725 1.2,-1.2 1.2,-0.3 2.1,0 m -2.1,0 2.1,0 1.2,0.3 1.2,1.2 0.9,1.725 0.6,2.4 0.3,2.7 m 0,0 0,2.4 -0.3,2.4 -0.3,2.1 -0.3,1.2 -0.3,0.3 -0.3,-0.3 -0.3,-1.2 -0.3,-2.1 0,-7.5 0.6,-2.4 1.2,-1.725 1.2,-1.2 1.2,-0.3 2.1,0 m -1.2,0 2.1,0 1.2,0.3 1.2,1.2 0.9,1.725 0.6,2.4 0.3,2.7 m 0,0 0,2.4 -0.3,2.4 -0.3,2.1 -0.3,1.2 -0.3,0.3 -0.3,-0.3 -0.3,-1.2 -0.3,-2.1 0,-7.5 0.6,-2.4 1.2,-1.725 1.2,-1.2 1.2,-0.3 2.1,0 m -1.2,0 2.1,0 1.5,0.3 1.2,1.2 0.9,1.725 0.6,2.4 0,7.5 -0.3,2.1 -0.3,1.2 -0.3,0.3 -0.3,-0.3 -0.3,-1.2 -0.3,-2.1 0,-2.4 -0.3,-2.4 0.3,-2.7 0.6,-2.4 0.9,-1.725 1.2,-1.2 1.5,-0.3 2.1,0 m -1.5,0 2.1,0 1.5,0.3 1.2,1.2 0.9,1.725 0.6,2.4 0,7.5 -0.3,2.1 -0.3,1.2 -0.3,0.3 -0.3,-0.3 -0.3,-1.2 -0.3,-2.1 0,-2.4 -0.3,-2.4 0.3,-2.7 0.6,-2.4 0.9,-1.725 1.2,-1.2 1.5,-0.3 2.1,0"
       style="fill:none;stroke:#000000;stroke-width:0.89749998;stroke-linecap:square;stroke-linejoin:miter;stroke-miterlimit:10;stroke-opacity:1;stroke-dasharray:none"
       id="path336" />
    <path
       inkscape:connector-curvature="0"
       d="m 475.0625,525.01156 2.1,0 1.2,0.3 1.2,1.2 0.9,1.725 0.6,2.4 0.3,2.7 m 0,0 0,2.4 -0.3,2.4 0,2.1 -0.3,1.2 -0.6,0.3 -0.3,-0.3 -0.3,-1.2 0,-2.1 -0.3,-2.4 0,-2.4 0.3,-2.7 0.6,-2.4 0.9,-1.725 1.2,-1.2 1.2,-0.3 2.1,0 m -1.2,0 2.1,0 1.2,0.3 1.2,1.2 0.9,1.725 0.6,2.4 0.3,2.7 m 0,0 0,2.4 -0.3,2.4 0,2.1 -0.3,1.2 -0.6,0.3 -0.3,-0.3 -0.3,-1.2 0,-2.1 -0.3,-2.4 0,-2.4 0.3,-2.7 0.6,-2.4 0.9,-1.725 1.2,-1.2 1.2,-0.3 2.1,0 m -1.2,0 2.1,0 1.5,0.3 1.2,1.2 0.9,1.725 0.6,2.4 0.3,2.7 m 0,0 -0.3,2.4 0,2.4 -0.3,2.1 -0.3,1.2 -0.3,0.3 -0.3,-0.3 -0.3,-1.2 -0.3,-2.1 0,-2.4 -0.3,-2.4 0.3,-2.7 0.6,-2.4 0.9,-1.725 1.2,-1.2 1.5,-0.3 2.1,0 m -1.5,0 2.1,0 1.5,0.3 1.2,1.2 0.9,1.725 0.6,2.4 0.3,2.7"
       style="fill:none;stroke:#000000;stroke-width:0.89749998;stroke-linecap:square;stroke-linejoin:miter;stroke-miterlimit:10;stroke-opacity:1;stroke-dasharray:none"
       id="path338" />
    <g
       transform="matrix(1.25,0,0,-1.25,95.4875,1137.2616)"
       id="g340">
      <g
         id="g342"
         clip-path="url(#clipPath344)">
        <path
           inkscape:connector-curvature="0"
           d="m 331.26,483.14 -0.24,-1.92 0,-1.92 -0.24,-1.68 -0.24,-0.96 -0.24,-0.24 -0.24,0.24 -0.24,0.96 -0.24,1.68 0,6 0.48,1.92 0.72,1.38 0.96,0.96 1.2,0.24 1.68,0"
           style="fill:none;stroke:#000000;stroke-width:0.71799999;stroke-linecap:square;stroke-linejoin:miter;stroke-miterlimit:10;stroke-opacity:1;stroke-dasharray:none"
           id="path348" />
      </g>
    </g>
    <g
       transform="matrix(1.25,0,0,-1.25,95.4875,1137.2616)"
       id="g350">
      <g
         id="g352"
         clip-path="url(#clipPath354)">
        <path
           inkscape:connector-curvature="0"
           d="m 72.6,489.8 1.68,0 1.2,-0.24 0.96,-0.96 0.72,-1.38 0.48,-1.92 0,-2.16"
           style="fill:none;stroke:#000000;stroke-width:0.71799999;stroke-linecap:square;stroke-linejoin:miter;stroke-miterlimit:10;stroke-opacity:1;stroke-dasharray:none"
           id="path358" />
      </g>
    </g>
    <path
       inkscape:connector-curvature="0"
       d="m 192.5375,533.33656 0,4.8 -0.3,2.1 -0.3,1.2 -0.3,0.3 -0.3,-0.3 -0.3,-1.2 -0.3,-2.1 0,-2.4 -0.3,-2.4 0.3,-2.7 0.6,-2.4 0.9,-1.725 1.2,-1.2 1.5,-0.3 2.1,0 m -1.5,0 2.1,0 1.5,0.3 1.2,1.2 0.9,1.725 0.6,2.4 0.3,2.7 m 0,0 -0.3,2.4 0,2.4 -0.3,2.1 -0.3,1.2 -0.3,0.3 -0.3,-0.3 -0.3,-1.2 -0.3,-2.1 0,-2.4 -0.3,-2.4 0.3,-2.7 0.6,-2.4 0.9,-1.725 1.2,-1.2 1.5,-0.3 2.1,0 m -1.2,0 2.1,0 1.2,0.3 1.2,1.2 0.9,1.725 0.6,2.4 0.3,2.7 m 0,0 0,2.4 -0.3,2.4 0,2.1 -0.3,1.2 -0.3,0.3 -0.6,-0.3 -0.3,-1.2 0,-2.1 -0.3,-2.4 0,-2.4 0.3,-2.7 0.6,-2.4 0.9,-1.725 1.2,-1.2 1.2,-0.3 2.1,0 m -1.2,0 2.1,0 1.2,0.3 1.2,1.2 0.9,1.725 0.6,2.4 0.3,2.7 m 0,0 0,2.4 -0.3,2.4 0,2.1 -0.3,1.2 -0.3,0.3 -0.6,-0.3 -0.3,-1.2 0,-2.1 -0.3,-2.4 0,-2.4 0.3,-2.7 0.6,-2.4 0.9,-1.725 1.2,-1.2 1.2,-0.3 2.1,0 m -1.2,0 2.1,0 1.5,0.3 1.2,1.2 0.9,1.725 0.6,2.4 0.3,2.7 m 0,0 -0.3,2.4 0,2.4 -0.3,2.1 -0.3,1.2 -0.3,0.3 -0.3,-0.3 -0.3,-1.2 -0.3,-2.1 0,-7.5 0.6,-2.4 0.9,-1.725 1.2,-1.2 1.5,-0.3 2.1,0 m -1.5,0 2.1,0 1.5,0.3 1.2,1.2 0.9,1.725 0.6,2.4 0.3,2.7 m 0,0 -0.3,2.4 0,2.4 -0.3,2.1 -0.3,1.2 -0.3,0.3 -0.3,-0.3 -0.3,-1.2 -0.3,-2.1 0,-7.5 0.6,-2.4 0.9,-1.725 1.2,-1.2 1.5,-0.3 2.1,0"
       style="fill:none;stroke:#000000;stroke-width:0.89749998;stroke-linecap:square;stroke-linejoin:miter;stroke-miterlimit:10;stroke-opacity:1;stroke-dasharray:none"
       id="path360" />
    <path
       inkscape:connector-curvature="0"
       d="m 242.6375,525.01156 2.1,0 1.2,0.3 1.2,1.2 1.2,1.725 0.6,2.4 0,7.5 -0.3,2.1 -0.3,1.2 -0.3,0.3 -0.3,-0.3 -0.3,-1.2 -0.3,-2.1 -0.3,-2.4 0,-2.4 0.3,-2.7 0.6,-2.4 0.9,-1.725 1.2,-1.2 1.2,-0.3 2.1,0 m -1.2,0 2.1,0 1.2,0.3 1.2,1.2 1.2,1.725 0.6,2.4 0,7.5 -0.3,2.1 -0.3,1.2 -0.3,0.3 -0.3,-0.3 -0.3,-1.2 -0.3,-2.1 -0.3,-2.4 0,-2.4 0.3,-2.7 0.6,-2.4 0.9,-1.725 1.2,-1.2 1.2,-0.3 2.1,0 m -2.1,0 2.1,0 1.2,0.3 1.2,1.2 0.9,1.725 0.6,2.4 0.3,2.7 m 0,0 0,2.4 -0.3,2.4 0,2.1 -0.3,1.2 -0.6,0.3 -0.3,-0.3 -0.3,-1.2 0,-2.1 -0.3,-2.4 0,-2.4 0.3,-2.7 0.6,-2.4 0.9,-1.725 1.2,-1.2 1.2,-0.3 2.1,0 m -1.2,0 2.1,0 1.2,0.3 1.2,1.2 0.9,1.725 0.6,2.4 0.3,2.7 m 0,0 0,2.4 -0.3,2.4 0,2.1 -0.3,1.2 -0.6,0.3 -0.3,-0.3 -0.3,-1.2 0,-2.1 -0.3,-2.4 0,-2.4 0.3,-2.7 0.6,-2.4 0.9,-1.725 1.2,-1.2 1.2,-0.3 2.1,0 m -1.2,0 2.1,0 1.5,0.3 1.2,1.2 0.9,1.725 0.6,2.4 0.3,2.7 m 0,0 -0.3,2.4 0,2.4 -0.3,2.1 -0.3,1.2 -0.3,0.3 -0.3,-0.3 -0.3,-1.2 -0.3,-2.1 0,-7.5 0.6,-2.4 0.9,-1.725 1.2,-1.2 1.5,-0.3 2.1,0 m -1.5,0 2.1,0 1.5,0.3 1.2,1.2 0.9,1.725 0.6,2.4 0.3,2.7 m 0,0 -0.3,2.4 0,2.4 -0.3,2.1 -0.3,1.2 -0.3,0.3 -0.3,-0.3 -0.3,-1.2 -0.3,-2.1 0,-7.5 0.6,-2.4 0.9,-1.725 1.2,-1.2 1.5,-0.3 2.1,0"
       style="fill:none;stroke:#000000;stroke-width:0.89749998;stroke-linecap:square;stroke-linejoin:miter;stroke-miterlimit:10;stroke-opacity:1;stroke-dasharray:none"
       id="path362" />
    <path
       inkscape:connector-curvature="0"
       d="m 297.8375,525.01156 2.1,0 1.2,0.3 1.2,1.2 0.9,1.725 0.6,2.4 0.3,2.7 m 0,0 0,4.8 -0.3,2.1 -0.3,1.2 -0.3,0.3 -0.3,-0.3 -0.3,-1.2 -0.3,-2.1 -0.3,-2.4 0,-2.4 0.3,-2.7 0.6,-2.4 0.9,-1.725 1.2,-1.2 1.2,-0.3 2.1,0 m -1.2,0 2.1,0 1.2,0.3 1.2,1.2 1.2,1.725 0.6,2.4 0,7.5 -0.3,2.1 -0.3,1.2 -0.3,0.3 -0.3,-0.3 -0.3,-1.2 -0.3,-2.1 -0.3,-2.4 0,-2.4 0.3,-2.7 0.6,-2.4 0.9,-1.725 1.2,-1.2 1.2,-0.3 2.1,0 m -1.2,0 2.4,0 1.2,0.3 1.2,1.2 0.9,1.725 0.6,2.4 0.3,2.7 m 0,0 0,2.4 -0.3,2.4 -0.3,2.1 -0.3,1.2 -0.3,0.3 -0.3,-0.3 -0.3,-1.2 -0.3,-2.1 0,-7.5 0.6,-2.4 1.2,-1.725 0.9,-1.2 1.5,-0.3 2.1,0 m -1.2,0 2.1,0 1.2,0.3 1.2,1.2 0.9,1.725 0.6,2.4 0.3,2.7 m 0,0 0,2.4 -0.3,2.4 -0.3,2.1 -0.3,1.2 -0.3,0.3 -0.3,-0.3 -0.3,-1.2 -0.3,-2.1 0,-7.5 0.6,-2.4 1.2,-1.725 1.2,-1.2 1.2,-0.3 2.1,0 m -2.1,0 1.5,0 1.2,0.3 0.9,1.2 0.6,1.725 0.6,2.4 0,7.5 -0.3,2.1 -0.3,1.2 0,0.3 -0.3,-0.3 -0.3,-1.2 -0.3,-2.1 0,-7.5 0.6,-2.4 0.6,-1.725 0.9,-1.2 1.2,-0.3 1.5,0 m -0.9,0 1.5,0 1.2,0.3 0.9,1.2 0.6,1.725 0.6,2.4 0.3,2.7 m 0,0 -0.3,2.4 0,2.4 -0.3,2.1 0,1.2 -0.3,0.3 -0.3,-0.3 -0.3,-1.2 0,-2.1 -0.3,-2.4 0,-2.4 0.3,-2.7 0.3,-2.4 0.9,-1.725 0.9,-1.2 0.9,-0.3 1.8,0"
       style="fill:none;stroke:#000000;stroke-width:0.89749998;stroke-linecap:square;stroke-linejoin:miter;stroke-miterlimit:10;stroke-opacity:1;stroke-dasharray:none"
       id="path364" />
    <path
       inkscape:connector-curvature="0"
       d="m 349.1375,525.01156 1.5,0 1.2,0.3 0.9,1.2 0.6,1.725 0.6,2.4 0,7.5 -0.3,2.1 -0.3,1.2 -0.3,0.3 0,-0.3 -0.3,-1.2 -0.3,-2.1 0,-7.5 0.6,-2.4 0.6,-1.725 0.9,-1.2 1.2,-0.3 1.5,0 m -0.9,0 1.5,0 1.2,0.3 0.9,1.2 0.6,1.725 0.525,2.4 0.3,2.7 m 0,0 -0.3,2.4 0,2.4 -0.3,2.1 0,1.2 -0.225,0.3 -0.3,-0.3 -0.3,-1.2 -0.3,-2.1 0,-7.5 0.6,-2.4 0.825,-1.725 0.9,-1.2 0.9,-0.3 1.8,0"
       style="fill:none;stroke:#000000;stroke-width:0.89749998;stroke-linecap:square;stroke-linejoin:miter;stroke-miterlimit:10;stroke-opacity:1;stroke-dasharray:none"
       id="path366" />
    <g
       transform="matrix(1.25,0,0,-1.25,95.4875,1137.2616)"
       id="g368">
      <g
         id="g370"
         clip-path="url(#clipPath372)">
        <path
           inkscape:connector-curvature="0"
           d="m 194.28,507.74 0,-5.7"
           style="fill:none;stroke:#000000;stroke-width:0.71799999;stroke-linecap:square;stroke-linejoin:miter;stroke-miterlimit:10;stroke-opacity:1;stroke-dasharray:none"
           id="path376" />
      </g>
    </g>
    <path
       inkscape:connector-curvature="0"
       d="m 338.3375,514.21156 0,7.2 m 0,4.5 0,7.125 m 0,4.5 0,7.125 m 0,4.5 0,7.2"
       style="fill:none;stroke:#000000;stroke-width:0.89749998;stroke-linecap:square;stroke-linejoin:miter;stroke-miterlimit:10;stroke-opacity:1;stroke-dasharray:none"
       id="path378" />
    <g
       transform="matrix(1.25,0,0,-1.25,95.4875,1137.2616)"
       id="g380">
      <g
         id="g382"
         clip-path="url(#clipPath384)">
        <path
           inkscape:connector-curvature="0"
           d="m 218.94,507.74 0,-5.7"
           style="fill:none;stroke:#000000;stroke-width:0.71799999;stroke-linecap:square;stroke-linejoin:miter;stroke-miterlimit:10;stroke-opacity:1;stroke-dasharray:none"
           id="path388" />
      </g>
    </g>
    <path
       inkscape:connector-curvature="0"
       d="m 369.1625,514.21156 0,7.2 m 0,4.5 0,7.125 m 0,4.5 0,7.125 m 0,4.5 0,7.2 m -50.625,2.1 12.6,0"
       style="fill:none;stroke:#000000;stroke-width:0.89749998;stroke-linecap:square;stroke-linejoin:miter;stroke-miterlimit:10;stroke-opacity:1;stroke-dasharray:none"
       id="path390" />
    <path
       inkscape:connector-curvature="0"
       d="m 330.2375,554.56156 8.1,3.9 -8.1,4.125 0,-8.025"
       style="fill:#000000;fill-opacity:1;fill-rule:evenodd;stroke:none"
       id="path392" />
    <path
       inkscape:connector-curvature="0"
       d="m 388.6625,558.46156 -12.6,0"
       style="fill:none;stroke:#000000;stroke-width:0.89749998;stroke-linecap:square;stroke-linejoin:miter;stroke-miterlimit:10;stroke-opacity:1;stroke-dasharray:none"
       id="path394" />
    <path
       inkscape:connector-curvature="0"
       d="m 377.2625,554.56156 -8.1,3.9 8.1,4.125 0,-8.025"
       style="fill:#000000;fill-opacity:1;fill-rule:evenodd;stroke:none"
       id="path396" />
  </g>
</svg>
